<svg id="Layer_1" data-name="Layer 1" xmlns="http://www.w3.org/2000/svg" xmlns:xlink="http://www.w3.org/1999/xlink" viewBox="0 0 382.68 99.21"><defs><style>.cls-1,.cls-14,.cls-16,.cls-17,.cls-18,.cls-19,.cls-20,.cls-22,.cls-23,.cls-24,.cls-25,.cls-26,.cls-5,.cls-7{fill:none;}.cls-2{clip-path:url(#clip-path);}.cls-11,.cls-3{fill:#91b2dd;}.cls-11,.cls-12,.cls-13,.cls-26,.cls-3,.cls-4{stroke:#231f20;}.cls-11,.cls-12,.cls-13,.cls-15,.cls-21,.cls-22,.cls-23,.cls-24,.cls-26,.cls-3,.cls-4,.cls-6,.cls-7{stroke-miterlimit:10;}.cls-3{stroke-width:1.32px;}.cls-12,.cls-13,.cls-4{fill:#7bc68a;}.cls-4{stroke-width:1.26px;}.cls-14,.cls-15,.cls-16,.cls-17,.cls-18,.cls-19,.cls-20,.cls-21,.cls-22,.cls-23,.cls-24,.cls-25,.cls-5,.cls-6,.cls-7{stroke:#000;}.cls-14,.cls-16,.cls-17,.cls-18,.cls-19,.cls-20,.cls-25,.cls-5{stroke-linecap:round;stroke-linejoin:round;}.cls-5{stroke-width:0.46px;}.cls-21,.cls-6{fill:#a5d497;}.cls-6{stroke-width:1.15px;}.cls-7{stroke-width:0.69px;}.cls-8{fill:#231f20;}.cls-9{fill:#e9d4bf;}.cls-10{clip-path:url(#clip-path-2);}.cls-11,.cls-13{stroke-width:0.81px;}.cls-12{stroke-width:0.77px;}.cls-14{stroke-width:0.58px;}.cls-15{fill:#18b366;stroke-width:0.84px;}.cls-16{stroke-width:0.5px;}.cls-17{stroke-width:0.28px;}.cls-18,.cls-24{stroke-width:0.56px;}.cls-19{stroke-width:0.59px;}.cls-20,.cls-21{stroke-width:0.7px;}.cls-22{stroke-width:0.98px;}.cls-23,.cls-25{stroke-width:0.42px;}.cls-26{stroke-width:2px;}</style><clipPath id="clip-path"><path class="cls-1" d="M509.58,90.79h2.81c1.07.18,2.13.45,3.2.54,10,.88,18.88,3.86,23.7,15a3.38,3.38,0,0,0,4.48,2.16,33.85,33.85,0,0,1,21.19.92c7.62,2.71,15.16,5.76,22.67,8.85,9.45,3.89,18.39,3.37,27-3A22.36,22.36,0,0,1,626.92,111c6-.34,15.15-2.22,17.37,4.53,1.51,4.57-3.43,8.66-4.95,12.94a64.26,64.26,0,0,0-1.59,6.46,19.69,19.69,0,0,0,3,.52c2.81,0,5.62,0,8.41-.28,10.69-1,17,4,19.25,15.59l-1.82-.41a21.63,21.63,0,0,0-16.39,1.91c-3.48,1.93-6.78,4.26-10.24,6.25Q632,163,624.07,167.32a15.27,15.27,0,0,1-11.78,1.37c-4.51-1.23-5.79.41-4.91,5.46,1.07,6.06,0,9-5.08,11.25-9,4-18,8.13-27.29,11.39-10.2,3.59-20.79,4.82-31.32,1.75a190.21,190.21,0,0,0-44-7.36c-5.63-.29-10.7-2.94-13.19-8.91a18.32,18.32,0,0,0-11.16-10.69c-4.93-1.84-10-3.23-15-5-9.62-3.4-13.62-10-12.28-20.59a5.71,5.71,0,0,0-2.06-5.67c-2.7-2.21-5.56-4.2-8.23-6.46-3-2.51-5.78-5.22-8.66-7.84v-2.63a33.16,33.16,0,0,1,4.22-4c5.29-3.51,10.61-7,16.07-10.14a46,46,0,0,1,8.93-3.69c7.93-2.54,15.14-.36,22.09,4.23a50.66,50.66,0,0,0,11.37,5.86c6.22,2.13,10.34-1.09,11.48-8.27a19.71,19.71,0,0,0,.2-5C503,96.78,505,93,509.58,90.79Z"/></clipPath><clipPath id="clip-path-2"><path class="cls-1" d="M62.4,17h1.71c.65.12,1.29.28,1.94.34,6.09.53,11.51,2.35,14.45,9.16a2.05,2.05,0,0,0,2.73,1.32,20.52,20.52,0,0,1,12.91.57c4.65,1.65,9.24,3.5,13.81,5.39,5.76,2.37,11.21,2,16.43-1.84a13.78,13.78,0,0,1,7.52-2.62c3.65-.2,9.23-1.35,10.58,2.76.92,2.78-2.09,5.28-3,7.89a39.68,39.68,0,0,0-1,3.93,11.3,11.3,0,0,0,1.8.32c1.71,0,3.42,0,5.12-.17,6.52-.59,10.35,2.45,11.74,9.5-.41-.09-.76-.16-1.11-.25a13.2,13.2,0,0,0-10,1.16c-2.12,1.18-4.13,2.6-6.24,3.81-3.2,1.84-6.42,3.62-9.66,5.37a9.27,9.27,0,0,1-7.18.83c-2.75-.74-3.53.25-3,3.33.65,3.7,0,5.48-3.09,6.86-5.5,2.45-11,5-16.63,6.94-6.22,2.18-12.67,2.94-19.09,1.06a116.09,116.09,0,0,0-26.8-4.48,8.7,8.7,0,0,1-8-5.43,11.19,11.19,0,0,0-6.8-6.52c-3-1.12-6.09-2-9.12-3-5.86-2.07-8.3-6.12-7.48-12.55a3.48,3.48,0,0,0-1.25-3.45c-1.65-1.35-3.39-2.56-5-3.94-1.8-1.53-3.52-3.18-5.28-4.77V36.88A21.2,21.2,0,0,1,16,34.43c3.22-2.14,6.46-4.25,9.79-6.17A27.14,27.14,0,0,1,31.2,26c4.83-1.55,9.22-.22,13.46,2.58a31.62,31.62,0,0,0,6.93,3.57c3.79,1.29,6.3-.67,7-5a12.89,12.89,0,0,0,.12-3C58.37,20.66,59.61,18.33,62.4,17Z"/></clipPath></defs><g class="cls-2"><path class="cls-3" d="M476.42,84.08h-1V82.9h-1.05c-.26-.58.26-1.76,0-2.35h-1c-.26-.59.26-1.77,0-2.35h-1V77c-1.05-.88-1.31-2.65-3.13-2.36V73.49h-1V72.31H467V71.13c-1-.29-2.08.3-3.13,0-.52-.29-.52-.88-1-1.17a77.87,77.87,0,0,1-14.6-3.53l-.38-.09a18.84,18.84,0,0,1-2.35,4.41c-3.72,5.17-9.36,8.34-16.84,9.81-5.65,1.11-11.28,2.31-16.34,4.61-5.56,2.52-8.91,6.26-10.35,11a17.42,17.42,0,0,1-.53,2.7c-1.44,3-4.78,4.1-8.6,4.61-3.45.47-6.94.77-10.36,1.34-4,.67-6.57,3.52-5.73,7.43a24.8,24.8,0,0,0,2.89,6.61c1.13,2,2.12,4.12,3.34,6.13a24.68,24.68,0,0,0,2.81,3.67,14.2,14.2,0,0,1,3.32,7.8,18.07,18.07,0,0,0,1.6,5.31c1.18,2.3,3.7,3.6,7,3.78,2.3.12,4.61,0,6.91,0a60.39,60.39,0,0,1,11,1c2.52.44,5.11.65,7.69.85,5.17.4,10.48.21,15.38,1.81a89.31,89.31,0,0,1,9.25,3.44c4.84,2.18,7.64,1.16,9.39-2.54a23.87,23.87,0,0,0,1.75-6.25,52.47,52.47,0,0,1,2.53-8.63c1.09-3,.89-6.09.45-9.22a19.22,19.22,0,0,1,.92-9.46,19.74,19.74,0,0,1,6.09-9.06c2.48-2,2.54-4.09,1.87-6.54a14.62,14.62,0,0,1,2.8-13.58,12.47,12.47,0,0,1,2.6-2.43A2.16,2.16,0,0,1,476.42,84.08Z"/><path class="cls-4" d="M623.91-55.86,408-31.24a55.94,55.94,0,0,1,2.93,6c1.18,3.3.71,6.5-2.81,9.14a15.87,15.87,0,0,1-4.4,2.32,25.58,25.58,0,0,0-9.08,5.38A30.13,30.13,0,0,1,383-2c-4.85,1.44-7.66,4-8.67,7.55a27.77,27.77,0,0,1-3.6,7.68,17.29,17.29,0,0,1-8.31,6.3A35.4,35.4,0,0,0,353,24.73a17.41,17.41,0,0,0-5.31,8.12,13.31,13.31,0,0,1-4.31,6.26c-3.25,2.56-5.09,5.57-6.9,8.65C334.32,51.47,330,53.4,324.28,54A42.47,42.47,0,0,0,318,55a10.5,10.5,0,0,0-6.78,5.29,34.43,34.43,0,0,0-3.46,8.54,17.42,17.42,0,0,1-6.89,9.6,5.6,5.6,0,0,0-1.4,1.39c-1,1.52-.79,2.55,1.26,4,2.84,2,5.82,4,8.78,6A48,48,0,0,0,316.16,94a41.38,41.38,0,0,0,17.7,4.1c1.89,0,2.56-.42,2.5-1.7-.17-3.35-.48-6.69-.59-10-.1-3.15,1.49-6,4.55-8.3,3.25-2.48,6.55-4.94,10.07-7.24,3.74-2.44,7.47-5,12.25-6.49a89.14,89.14,0,0,1,10.19-2.47c8.06-1.52,14.93-4.15,19.45-9.09a26.26,26.26,0,0,0,5.37-9.7c.83-2.43,1.48-4.89,3.25-7.16,1.6-2.06,4-3.35,7.1-4.15a56.5,56.5,0,0,1,11.32-1.49c2.82-.13,5.65-.34,8.48-.41a28.14,28.14,0,0,1,10.05,1.59c3.57,1.24,7.16,2.43,10.67,3.74,2.84,1.06,4.26,2.42,3,5.32a42.87,42.87,0,0,1-2.52,4.9,19.14,19.14,0,0,0-2.71,9.71A16.26,16.26,0,0,1,445.1,61a2.7,2.7,0,0,1,.39.08,84.26,84.26,0,0,0,14.6,3.18c.52.27.52.8,1,1.06,1,.27,2.09-.26,3.13,0v1.06h1v1.07h1v1.06c1.83-.27,2.09,1.33,3.13,2.12v1.06h1c.26.53-.26,1.6,0,2.13h1c.26.53-.26,1.59,0,2.12h1V77h1a1.88,1.88,0,0,0,0,.81,16.79,16.79,0,0,1,8.7-2.27c3.5-.07,7,0,10.52,0a23.84,23.84,0,0,0,6.45-.75,9.94,9.94,0,0,1,7.86,1.15c.61-2,2.47,1.41,0,0-.74,2.43-4.08.58-7,2.24-1.27.71-3,4.29-4.44,4.87-3.5,1.43-1.53,9.57-2.87,12.31-1.75,3.59-2,7.17.83,10.54,2.16,2.58,5.68,4,10,4.38,3.08.27,6.2.33,9.26.68s6.05.53,8.59,1.43c4.42,1.57,5.31,3.4,2.53,6.84-1.41,1.75-3.29,3.32-4.81,5-2.19,2.49-4,5.12-4.67,8-.51,2.3.31,4.52,2,6.61a21.89,21.89,0,0,0,11.05,7.52,39.68,39.68,0,0,0,7.83,1.39c3.63.32,7.32.32,11,.47,1.67.06,3.35.15,5,.21a61.4,61.4,0,0,0,12.88-1.06c5.12-.92,10.27-1.77,15.39-2.68a15.48,15.48,0,0,0,8.11-3.75,100.19,100.19,0,0,1,10.44-8.49,18.31,18.31,0,0,0,5.33-6.62c1.28-2.32,6.75-7,7.38-7.36l9.52-6.62,60.85-42.33Z"/><path class="cls-5" d="M397.74-35.75c-.16.08-.41.13-.46.24-1.64,3.46-3.08,7-4.93,10.38-1.66,3.05-4.92,5-9.06,6-2.1.55-4.2,1.08-6.28,1.66a24.49,24.49,0,0,0-8,4A34.77,34.77,0,0,1,356.9-8a54.69,54.69,0,0,0-11.79,4.72A37.38,37.38,0,0,1,333,.46a39.5,39.5,0,0,0-9.45,2.41,19.12,19.12,0,0,0-6.26,3.82c-2.61,2.61-2.14,5.42-.44,8.13,1.49,2.39,3.35,4.65,5,7C323.64,24.36,325.08,27,325,30s-2.17,4.54-6,4.74a139.88,139.88,0,0,0-16.65,1.64c-.77.13-1.57.16-2.36.24"/><path class="cls-5" d="M389.42-35.87a14.28,14.28,0,0,1-3.33,6.25c-2.39,2.66-5.93,4.06-10,4.74-2.4.4-4.82.77-7.22,1.19A9.23,9.23,0,0,0,364-21.11,49.64,49.64,0,0,1,359.21-17a11.24,11.24,0,0,1-3.74,1.65,66.76,66.76,0,0,0-12.72,4.51A46.07,46.07,0,0,1,332.24-7.5a28.7,28.7,0,0,0-9.74,4c-3.27,2-6.58,4-9.71,6.16-2.08,1.43-3.52,3.24-3.78,5.42a10.49,10.49,0,0,0,1.55,6.74c1.16,2,2.36,3.92,3.43,5.91a9.35,9.35,0,0,1,.94,2.72c.46,2.37-1.05,4-3.75,5.07A44,44,0,0,1,300,31.15"/><path class="cls-5" d="M300.19,11.41c1.05,1.85,2.14,3.69,3.12,5.56a9.67,9.67,0,0,1,.94,2.6c.35,1.72-.76,3.25-2.8,4.14a11.89,11.89,0,0,0-1.26.7"/><path class="cls-5" d="M300,48.4c3,.88,4.66,2.69,5.11,5a3.06,3.06,0,0,1-1.35,3c-1.13.8-2.4,1.51-3.6,2.26"/><path class="cls-5" d="M300.19,68.61v4.5"/><path class="cls-5" d="M375.75,81.5a10.19,10.19,0,0,0-2.46,1,1.47,1.47,0,0,0-.44,1.59,2.89,2.89,0,0,0,1.81.94A3.15,3.15,0,0,0,378,83.62c.5-.9-.16-1.59-2-2.12"/><path class="cls-5" d="M375.75,74.64a22.54,22.54,0,0,0-9.74,3.9c-2.83,2-4.91,4.36-5.5,7.33-.37,1.89,1.66,4.49,4.25,5.32a27.27,27.27,0,0,0,13.8.77c5.39-1.1,8.75-3.94,9.9-8.1,1.34-4.86-4.76-9.63-10.36-9.23-.72.06-1.46,0-2.19,0"/><path class="cls-6" d="M380.46,41.78c-4.09.56-7.1,2.57-10,4.53-3.71,2.5-7.34,5.13-9.76,8.48a27.56,27.56,0,0,0-2.5,4.26c-.6,1.26-.1,1.9,1.7,2.09a37.58,37.58,0,0,0,6.27.22,30,30,0,0,0,8.95-1.62c5.65-2.2,10.49-5.06,12.53-9.81a5.22,5.22,0,0,0-1.05-6,7.26,7.26,0,0,0-6-2.13Z"/><path class="cls-7" d="M419.73,39a15.78,15.78,0,0,0-8.63,3.66,18,18,0,0,0-4.25,6c-1.52,3.27-2.91,6.57-4.59,9.8a38.78,38.78,0,0,1-6.74,9.1c-1.47,1.52-3.56,2.12-6.1,2.16-6,.12-12,.32-17.76,1.85A31.07,31.07,0,0,0,362.1,76a27,27,0,0,0-7.89,7.66C350.7,89.23,353,96.12,361,98.91a12,12,0,0,0,5.36.51c4.21-.42,8.37-1.1,12.57-1.6a18.81,18.81,0,0,0,10.95-4.77,56,56,0,0,0,6.71-7.33,18.37,18.37,0,0,0,2.56-5.88c1-3.48,2.64-3.39,6-3.48,4.77-.14,9.45-.62,14.14-1.22,2.22-.29,4.5-.34,6.75-.5,7.79-.54,14.86-3.74,16.25-10a15.07,15.07,0,0,0-.27-5.78c-.53-3.05-1.29-6.08-2-9.11a10.12,10.12,0,0,0-3.58-5.8,21.17,21.17,0,0,0-11.5-4.81c-1.65-.17-3.34-.1-5-.14Z"/><path class="cls-7" d="M383.92,33c-1.68.15-3.35.34-5,.46-4.73.35-8.56,1.89-11.48,4.73a31,31,0,0,1-3.62,3.07,111.57,111.57,0,0,0-14.15,12.16,53.77,53.77,0,0,1-13.32,9.36,45.83,45.83,0,0,1-8.95,3c-5.08,1.4-7.6,4.35-8.64,8.15-1.25,4.6,1.29,8.32,5,11.69.94.85,1.77.85,3,.13,2.69-1.64,5.2-3.47,8-4.92,4.38-2.24,9-4.18,13.47-6.32a78.05,78.05,0,0,0,7.37-3.91c4.67-2.92,10.12-4.51,15.89-5.65,9.06-1.8,16.24-5.54,20.69-11.84a13.44,13.44,0,0,0,2.29-10.74,14.54,14.54,0,0,0-2.1-5.78,7.35,7.35,0,0,0-6.59-3.33,13,13,0,0,1-1.73-.22Z"/><path class="cls-5" d="M359.41-1.71a26.53,26.53,0,0,0-9.1,3.31c-4.53,2.57-9.82,3.64-15.24,4.51-3,.48-6.09,1-8.65,2.46-1.83,1-3.08,3.2-1.9,5.21,2,3.41,5.28,5.85,9.92,7.19a9.86,9.86,0,0,0,6-.47,50.49,50.49,0,0,0,10.05-4.85c3.18-1.89,6.28-3.86,9.44-5.78S365,5.37,365.5,2.3c.34-2.22-1.71-4.25-4.67-4-.42,0-.84,0-1.26,0"/><path class="cls-5" d="M323.91,90c-1.75,1-2.18,1.88-1.23,2.94a1.84,1.84,0,0,0,1.22.55,1.47,1.47,0,0,0,.93-.78,2.1,2.1,0,0,0-.76-2.71"/></g><path class="cls-8" d="M216.89,23.06V47.47a2.71,2.71,0,1,1-5.4,0V28.91h-.09l-8.63,14a2.82,2.82,0,0,1-5,.09L188.8,28.77h-.09V47.51A2.53,2.53,0,0,1,186,50.37c-1.63,0-2.63-1-2.63-2.86V23.19c0-2.13,1.18-3.72,3.49-3.76a3.86,3.86,0,0,1,3.59,2.13l9.71,15.88,9.75-15.83a3.78,3.78,0,0,1,3.54-2.18A3.3,3.3,0,0,1,216.89,23.06Z"/><path class="cls-8" d="M251.77,21.51a20.57,20.57,0,0,1,2.95,3.41,16.51,16.51,0,0,1,2.09,8.62V47.47a2.71,2.71,0,1,1-5.4,0V41.21H234.12v6.3c0,1.82-1,2.86-2.63,2.86a2.53,2.53,0,0,1-2.68-2.86v-14a19.34,19.34,0,0,1,.91-6.13,13.92,13.92,0,0,1,1.18-2.49,19.62,19.62,0,0,1,2.9-3.41c1.5-1.54,4.54-2.31,9-2.36S250.27,20,251.77,21.51Zm-.36,11.8c0-6-3-9.21-8.62-9.21s-8.67,3.18-8.67,9.21v2.95h17.29Z"/><path class="cls-8" d="M284.66,19.7c6.71,0,10.3,3.36,10.3,9.71s-3.59,9.76-10.3,9.76H274.13v8.3c0,1.81-1,2.9-2.67,2.9s-2.73-1.09-2.73-2.9V22.6a2.67,2.67,0,0,1,2.91-2.9Zm-.55,14.52c3.45,0,5.31-1.59,5.31-4.81s-1.86-4.76-5.31-4.76h-10v9.57Z"/><path class="cls-8" d="M311.29,31.09a17.41,17.41,0,0,0,6.58.95c9.57.14,13,2.68,13,8.8A9.57,9.57,0,0,1,330,45a10.7,10.7,0,0,1-3.45,3.72c-1.68,1.22-4.67,1.86-8.89,1.9a21.33,21.33,0,0,1-6.9-.86c-3.22-1.13-4.67-2.18-5.94-3.63a2.88,2.88,0,0,1-.68-1.95,2.38,2.38,0,0,1,2.54-2.54,2.5,2.5,0,0,1,1.72.64c2.32,2.31,5.54,3.44,9.67,3.44,4.58,0,7.26-1.77,7.3-4.72A2.32,2.32,0,0,0,324,38.53c-1.82-.86-3.72-1.09-6.81-1.13-9.35-.14-12.66-2.68-12.66-8.44,0-6,5.08-9.81,13.07-9.81,4.67.05,8.35,1.28,11.07,3.68a2.7,2.7,0,0,1,.91,2.13c-.14,1.55-.86,2.36-2.27,2.45a3.16,3.16,0,0,1-2-.63,12.29,12.29,0,0,0-8.12-2.72,11.51,11.51,0,0,0-3,.36,9.37,9.37,0,0,0-2.77,1.27,3.58,3.58,0,0,0-1.45,3.08A2.21,2.21,0,0,0,311.29,31.09Z"/><path class="cls-8" d="M347.76,31.09a17.41,17.41,0,0,0,6.58.95c9.57.14,13,2.68,13,8.8a9.72,9.72,0,0,1-.9,4.18A10.8,10.8,0,0,1,363,48.74c-1.68,1.22-4.68,1.86-8.9,1.9a21.22,21.22,0,0,1-6.89-.86c-3.22-1.13-4.68-2.18-6-3.63a2.93,2.93,0,0,1-.68-1.95,2.38,2.38,0,0,1,2.54-2.54,2.55,2.55,0,0,1,1.73.64c2.31,2.31,5.53,3.44,9.66,3.44,4.58,0,7.26-1.77,7.31-4.72a2.34,2.34,0,0,0-1.32-2.49c-1.81-.86-3.72-1.09-6.8-1.13-9.35-.14-12.66-2.68-12.66-8.44,0-6,5.08-9.81,13.06-9.81,4.68.05,8.35,1.28,11.08,3.68a2.7,2.7,0,0,1,.9,2.13c-.13,1.55-.86,2.36-2.27,2.45a3.11,3.11,0,0,1-2-.63,12.31,12.31,0,0,0-8.12-2.72,11.51,11.51,0,0,0-2.95.36A9.15,9.15,0,0,0,348,25.69a3.56,3.56,0,0,0-1.45,3.08A2.21,2.21,0,0,0,347.76,31.09Z"/><path class="cls-9" d="M62.4,17h1.71c.65.12,1.29.28,1.94.34,6.09.53,11.51,2.35,14.45,9.16a2.05,2.05,0,0,0,2.73,1.32,20.52,20.52,0,0,1,12.91.57c4.65,1.65,9.24,3.5,13.81,5.39,5.76,2.37,11.21,2,16.43-1.84a13.78,13.78,0,0,1,7.52-2.62c3.65-.2,9.23-1.35,10.58,2.76.92,2.78-2.09,5.28-3,7.89a39.68,39.68,0,0,0-1,3.93,11.3,11.3,0,0,0,1.8.32c1.71,0,3.42,0,5.12-.17,6.52-.59,12.84,6.32,11.74,9.5-.15.43-7.92-.86-11.1.91-2.12,1.18-4.13,2.6-6.24,3.81-3.2,1.84-6.42,3.62-9.66,5.37a9.27,9.27,0,0,1-7.18.83c-2.75-.74-3.53.25-3,3.33.65,3.7,0,5.48-3.09,6.86-5.5,2.45-11,5-16.63,6.94-6.22,2.18-12.67,2.94-19.09,1.06a116.09,116.09,0,0,0-26.8-4.48,8.7,8.7,0,0,1-8-5.43,11.19,11.19,0,0,0-6.8-6.52c-3-1.12-6.09-2-9.12-3-5.86-2.07-8.3-6.12-7.48-12.55a3.48,3.48,0,0,0-1.25-3.45c-1.65-1.35-3.39-2.56-5-3.94-1.8-1.53-3.52-3.18-5.28-4.77V36.88A21.2,21.2,0,0,1,16,34.43c3.22-2.14,6.46-4.25,9.79-6.17A27.14,27.14,0,0,1,31.2,26c4.83-1.55,9.22-.22,13.46,2.58a31.62,31.62,0,0,0,6.93,3.57c3.79,1.29,6.3-.67,7-5a12.89,12.89,0,0,0,.12-3C58.37,20.66,59.61,18.33,62.4,17Z"/><g class="cls-10"><path class="cls-11" d="M42.19,12.92h-.64V12.2h-.63c-.16-.36.15-1.08,0-1.43h-.64c-.16-.36.16-1.08,0-1.44h-.64V8.61C39,8.08,38.85,7,37.74,7.18V6.46H37.1V5.74h-.63V5c-.64-.18-1.27.18-1.91,0-.32-.18-.32-.54-.64-.72A47.52,47.52,0,0,1,25,2.16l-.24-.05A11.3,11.3,0,0,1,23.36,4.8c-2.26,3.14-5.7,5.08-10.26,6a45.21,45.21,0,0,0-9.95,2.81,10.76,10.76,0,0,0-6.31,6.7,12.51,12.51,0,0,1-.32,1.64c-.88,1.82-2.92,2.5-5.25,2.82-2.1.28-4.23.46-6.31.81-2.46.41-4,2.15-3.49,4.52a15.15,15.15,0,0,0,1.76,4c.69,1.25,1.29,2.52,2,3.74A15.09,15.09,0,0,0-13,40.07a8.67,8.67,0,0,1,2,4.76,10.67,10.67,0,0,0,1,3.23c.71,1.41,2.25,2.2,4.26,2.31,1.4.07,2.81,0,4.21,0A36.58,36.58,0,0,1,5.16,51c1.54.26,3.12.39,4.69.51,3.15.25,6.38.14,9.37,1.11a54,54,0,0,1,5.64,2.09c2.95,1.34,4.66.71,5.72-1.54a15.14,15.14,0,0,0,1.07-3.81,30.33,30.33,0,0,1,1.54-5.26,11.5,11.5,0,0,0,.27-5.62A11.74,11.74,0,0,1,34,32.73a12,12,0,0,1,3.71-5.52,3.33,3.33,0,0,0,1.14-4A8.9,8.9,0,0,1,40.58,15a7.69,7.69,0,0,1,1.58-1.49A1.47,1.47,0,0,1,42.19,12.92Z"/><path class="cls-12" d="M132.07-72.36.5-57.36a38.42,38.42,0,0,1,1.79,3.65A4.5,4.5,0,0,1,.57-48.14,9.69,9.69,0,0,1-2.1-46.73a15.46,15.46,0,0,0-5.54,3.28,18.4,18.4,0,0,1-7.08,3.91c-3,.88-4.66,2.44-5.28,4.6a17.13,17.13,0,0,1-2.19,4.68,10.65,10.65,0,0,1-5.07,3.84A21.48,21.48,0,0,0-33-23.25a10.63,10.63,0,0,0-3.24,4.95,8.09,8.09,0,0,1-2.62,3.81,17.39,17.39,0,0,0-4.21,5.28C-44.41-7-47-5.78-50.52-5.43a24.94,24.94,0,0,0-3.82.6,6.34,6.34,0,0,0-4.13,3.22,20.82,20.82,0,0,0-2.11,5.2,10.64,10.64,0,0,1-4.2,5.85,3.27,3.27,0,0,0-.85.85c-.59.93-.49,1.55.76,2.45,1.73,1.25,3.55,2.45,5.35,3.65A29.29,29.29,0,0,0-55.47,19a25.19,25.19,0,0,0,10.79,2.5c1.15,0,1.56-.26,1.52-1-.1-2-.3-4.07-.36-6.11a6.12,6.12,0,0,1,2.77-5.06c2-1.51,4-3,6.14-4.41A30.2,30.2,0,0,1-27.15.89,54.11,54.11,0,0,1-20.94-.62c4.91-.92,9.1-2.53,11.86-5.54a16.06,16.06,0,0,0,3.27-5.91,13.71,13.71,0,0,1,2-4.36A7.67,7.67,0,0,1,.49-19a34.22,34.22,0,0,1,6.9-.91c1.72-.08,3.44-.2,5.17-.25a17.23,17.23,0,0,1,6.12,1c2.18.75,4.37,1.49,6.51,2.28,1.72.65,2.59,1.47,1.81,3.24a25.57,25.57,0,0,1-1.53,3,11.52,11.52,0,0,0-1.65,5.91,10,10,0,0,1-.72,3.56l.24,0A50.74,50.74,0,0,0,32.23.82c.32.16.32.49.64.65.64.16,1.27-.16,1.91,0v.65h.63v.64h.64v.65c1.11-.16,1.27.81,1.9,1.29v.65h.64c.16.32-.16,1,0,1.29h.63c.16.33-.15,1,0,1.3h.64v.65h.64a1.05,1.05,0,0,0,0,.49,10.25,10.25,0,0,1,5.3-1.39c2.14,0,4.28,0,6.42,0a14.29,14.29,0,0,0,3.93-.45,6,6,0,0,1,4.79.7c.37-1.24,1.5.86,0,0-.45,1.48-2.49.35-4.27,1.36-.77.44-1.84,2.62-2.7,3-2.13.87-.94,5.83-1.75,7.5-1.07,2.19-1.21,4.37.5,6.42,1.32,1.58,3.47,2.44,6.1,2.67,1.88.17,3.78.21,5.65.42a24,24,0,0,1,5.23.87c2.69,1,3.23,2.07,1.54,4.17-.86,1.06-2,2-2.93,3.07a11.52,11.52,0,0,0-2.84,4.87,4.73,4.73,0,0,0,1.19,4,13.31,13.31,0,0,0,6.73,4.58,23.78,23.78,0,0,0,4.77.84c2.22.2,4.47.2,6.7.29,1,0,2,.1,3.06.13a37.28,37.28,0,0,0,7.85-.65c3.12-.55,6.26-1.07,9.38-1.63a9.55,9.55,0,0,0,4.95-2.28,58.49,58.49,0,0,1,6.36-5.18,11,11,0,0,0,3.24-4c.78-1.42,4.12-4.27,4.5-4.49l5.8-4L167.05,4Z"/><path class="cls-13" d="M62.6,12.2c1.5,1,.37-1.37,0,0Z"/><path class="cls-14" d="M94.47,86.73a7.16,7.16,0,0,1,1.63-4.82c1.51-1.77,3.79-2.57,6.31-2.9,1.93-.25,3.89-.32,5.84-.48,1.09-.09,2.17-.2,3.25-.31.63-.06.89-.4.76-.83-.49-1.54,0-3,.31-4.52a23.62,23.62,0,0,0,.84-6.06c0-.53.4-5.53-3.82-7.17S101,60.05,97,61.3a17.32,17.32,0,0,1-7.18.49c-2-.24-4-.31-6-.48-3.33-.29-6.68-.37-10-1-2.8-.52-4.78-.21-6.57-1.92-2.73-2.59-4.63-3.57-5.7-6.84-.62-1.88-.19-7.65-.07-8.64.17-1.39-.68-2.31-2.36-2.82-2.29-.71-3-1-5.29-1.73-1.33-.41-2.62-.9-3.93-1.37a11.61,11.61,0,0,0-5.35-.57,5.14,5.14,0,0,0-4.39,3.26c-1,2.71-2,5.44-2.86,8.2a42.66,42.66,0,0,0-.81,5,19.93,19.93,0,0,1-1.82,6.51c-1.09,2-3.23,3.14-6.12,3.3A13,13,0,0,1,21.62,61,38.12,38.12,0,0,0,12,57.18a32.15,32.15,0,0,0-4.59-.68c-2.19-.15-4.4-.22-6.6-.16-6.73.18-12.22,2.27-16,6.88a13.4,13.4,0,0,0-1.71,2.53c-.88,1.82,0,2.84,1.68,3.55,2.25,1,4.4,2.06,6.52,3.2a29.84,29.84,0,0,0,5.56,2.35A7.37,7.37,0,0,1,.73,77.09C2,78.69,3.89,79.29,6,79.59A62.51,62.51,0,0,1,16.46,82a7.92,7.92,0,0,0,5.84-.19c1.88-.86,3.8-1.67,5.74-2.45a15.09,15.09,0,0,1,5.07-1.23A11.08,11.08,0,0,1,39,79.91c1.28.71,2.51,1.48,3.84,2.13,2.31,1.14,5.19,1.19,7.08-.59,1-.91,2.06,5.44,3,4.56a8.8,8.8,0,0,1,5.66-2.11,10.42,10.42,0,0,1,5,1.12,15.81,15.81,0,0,1,6.42,5.66c.68,1.06,1.4,2.1,2.1,3.14"/><path class="cls-15" d="M115.72-60.18a9.16,9.16,0,0,1-4.13,7.56,7.77,7.77,0,0,1-5.45,1.19c-2.46-.24-4.63-1.1-7-1.54-.67-.13-1.35-.23-2-.37a2.27,2.27,0,0,0-2.57,1,18.7,18.7,0,0,0-1.35,2.37c-.74,1.55-1.49,3.1-2.09,4.69-.82,2.14-1.5,4.31-2.22,6.47a4.45,4.45,0,0,1-3.74,3.1,36.84,36.84,0,0,0-7.56,2.09A36.43,36.43,0,0,1,71-31.37c-2.81.67-5.58,1.43-8.43,2a54.07,54.07,0,0,1-5.45.53q-2.91.27-5.84.5a2.84,2.84,0,0,0-2.77,2c-.34,1-.58,2.08-1,3.1a8.65,8.65,0,0,1-4.42,5.09,41.25,41.25,0,0,1-4.28,1.4,13.44,13.44,0,0,0-1.91.79c-.92.5-.94,1.17-.1,1.72a7.65,7.65,0,0,0,3.73,1.07c1.88.14,3.78.14,5.65.32s3.64.5,5.46.78,3.39.49,5.07.8a8.52,8.52,0,0,1,5.08,2.87c1.33,1.54,2.71,3.05,4,4.61A12.81,12.81,0,0,0,70.25-.54a24.71,24.71,0,0,1,6,3.73,8.5,8.5,0,0,0,4.29,2.16c4,.73,6.1,0,7.15-3a15.26,15.26,0,0,1,3.74-6,14.69,14.69,0,0,0,4-7.26,16.64,16.64,0,0,1,2.77-6.84,13.23,13.23,0,0,1,1.82-2,19.24,19.24,0,0,1,6.89-4.31,21,21,0,0,1,4.49-.86c3.29-.22,5.43-1.39,6.42-3.77.63-1.52,1.35-3,2-4.54a11,11,0,0,1,3.37-3.88A30.57,30.57,0,0,1,126-38.93Z"/><path class="cls-16" d="M85.2,85.08a21.94,21.94,0,0,1,3.33-5,15.52,15.52,0,0,1,7.64-4.17c1.69-.45,3.45-.77,5.12-1.25,2.54-.72,4.09-2.77,4.12-4.24,0-1-.89-1.71-2.31-1.93a10.66,10.66,0,0,0-5,.71,12.23,12.23,0,0,1-5,.82c-1.32-.14-2.63-.4-3.94-.63a37.86,37.86,0,0,0-6.5-.78c-1.2,0-2.4-.13-3.6-.11-1.88,0-3.77.19-5.65.24a8.7,8.7,0,0,1-6.51-2.12c-.71-.68-1.39-1.39-2.15-2.05a12.76,12.76,0,0,1-3.06-4.14,21.85,21.85,0,0,0-3.17-4.25,4.4,4.4,0,0,1-1-2.7,15.34,15.34,0,0,0-.36-3.09c-.38-1.51-1.84-2.33-3.74-2.63a5,5,0,0,0-5.22,1.92,23.39,23.39,0,0,0-2.55,4.83c-3.42,7.58,3.65,11,6.06,12.78a6,6,0,0,1,2.56,4.13c.17,1.28,1,1.75,2.74,1.48,3-.47,3.67.47,6.77.47a12.37,12.37,0,0,1,5.91,1.5,13.89,13.89,0,0,1,5,4.25A20.66,20.66,0,0,0,80.84,85"/><path class="cls-17" d="M125.77-33.74a10.11,10.11,0,0,0-4.32,5.83c-.44,1.33-1,2.64-1.52,4s-1.59,2.26-4,2.16L112-21.93a13.72,13.72,0,0,0-7,1.52c-2.63,1.43-5,3.06-6,5.53a9.53,9.53,0,0,0-.76,3.53c0,.82,0,1.64,0,2.45a10,10,0,0,1-2.94,7.36,10.63,10.63,0,0,0-2.27,3.32c-1,2.65-.48,5,3.21,6.45a30.78,30.78,0,0,0,6.49,1.84,9.53,9.53,0,0,0,5.45-.83,21.19,21.19,0,0,0,9.59-8,13.49,13.49,0,0,1,4.77-4.69A12,12,0,0,0,124-4.5a1.29,1.29,0,0,0,.2-2.16A17.59,17.59,0,0,1,122-9.2a8.48,8.48,0,0,1-.89-2.8,10.22,10.22,0,0,1-.19-2.59,11.65,11.65,0,0,1,.48-2.8c.47-1.58,1.47-2.2,4.57-2.38"/><path class="cls-18" d="M126.52-8.2a21,21,0,0,0-5.46,3.38q-2.82,2.13-5.65,4.25c-1.59,1.2-3.15,2.43-4.8,3.6a11.11,11.11,0,0,1-4.87,2.45,8.84,8.84,0,0,1-3.16-.2c-1.23-.24-2.47-.45-3.73-.58a2.91,2.91,0,0,0-3.31,1.87,6.82,6.82,0,0,0-.57,3c.24,3-1,5.55-3.09,8a6.48,6.48,0,0,0-1.52,3.74c-.11,1.45,1,2.62,3,3.08,1.34.33,2.72.59,4.11.8a39.79,39.79,0,0,1,8.73,2.72c2.7,1.06,4.43.68,6.16-.72a12.44,12.44,0,0,0,2.58-3,2.63,2.63,0,0,0,.35-2.65c-.22-.45-.17-1-.42-1.43-1.14-2.06-.33-3.8,1.45-5.41a8.11,8.11,0,0,1,4.6-2.08,15.13,15.13,0,0,1,5,.35c.24,0,.51,0,.76.08"/><path class="cls-12" d="M141.76,63.41c-1.37,0-9.71-3.64-12.36-8.66-5.72-11.82,30.82-32.35,32.31-34.34l37.7,40.83L146,66.53"/><path class="cls-17" d="M112.65,83.73c-1.17-2-3.13-3.12-5.93-3.54a7.24,7.24,0,0,0-4,.52,3.61,3.61,0,0,0-2.21,2.8.85.85,0,0,1-.09.22"/><path class="cls-17" d="M125.86,64.14a6.66,6.66,0,0,0-3.45,1.43c-1.59,1.42-.92,3.21.68,4.18A7.69,7.69,0,0,0,126,70.84"/><path class="cls-17" d="M38.85,83.69a2.38,2.38,0,0,1-.57-.18,8.17,8.17,0,0,0-4.89-1.58,9,9,0,0,0-3.72,1,11.29,11.29,0,0,0-1.16.72"/><path class="cls-17" d="M12.62,83.66A7.16,7.16,0,0,0,7.27,83a11.6,11.6,0,0,0-1.54.64"/><path class="cls-17" d="M125.91,26.83v1.73"/><path class="cls-19" d="M87.47,27.83c-.38.06-.76.14-1.14.18a5.09,5.09,0,0,0-3.23,1.72,43.21,43.21,0,0,1-5.17,4.58,10.78,10.78,0,0,0-2.94,3c-1.52,2.46-1.14,4.59,1.15,6.63A10.24,10.24,0,0,0,82,46.25a47.89,47.89,0,0,0,6.56.21,47.82,47.82,0,0,0,9.8-1A26.61,26.61,0,0,0,103.59,44a10.7,10.7,0,0,0,4.12-3.55c.87-1.22,1.72-2.46,2.49-3.72a3,3,0,0,0,.41-1.45c0-.81-.5-1.43-1.85-1.56a14.13,14.13,0,0,1-7.2-3,15.26,15.26,0,0,0-3.88-2.14,13.61,13.61,0,0,0-4.3-.77c-1.94-.05-3.89,0-5.83,0"/><path class="cls-20" d="M13.2,26.18c-1.28.14-2.55.36-3.83.42A49.83,49.83,0,0,0-2.88,28.34,11.28,11.28,0,0,0-6.63,30a3.77,3.77,0,0,0-1.53,2.89,7.67,7.67,0,0,0,1.53,4.83c1.15,1.64,2.29,3.29,3.35,5,.86,1.38,2.3,1.94,4.22,1.93,1,0,2-.08,3-.14a23.28,23.28,0,0,1,7.66,1.29,13.08,13.08,0,0,0,6.69.35,6.71,6.71,0,0,0,2-.93c1.6-1,3.07-2.12,4.72-3.07a7.42,7.42,0,0,0,3.6-4.84c.46-1.69.84-3.4,1.14-5.11a5.79,5.79,0,0,0,0-2.52c-.46-1.68-1.51-2.46-4.08-2.87a74.78,74.78,0,0,0-12.35-.59"/><path class="cls-17" d="M122.61,9.54a10.12,10.12,0,0,0-6.6,3.11,2.87,2.87,0,0,0-.48.85c-.69,1.55.33,2.36,2.2,2.44a12.48,12.48,0,0,0,2.67-.08c2.2-.38,3.48-1.51,3.91-3.15a8.25,8.25,0,0,0,.2-2.16c0-.58-.64-.89-1.81-1"/><path class="cls-18" d="M69.37-2.21c-1.34.6-1.61,1.3-.85,2.45.51.76,1.12,1.5,1.72,2.23a4.52,4.52,0,0,1,1,2.52c.13,1.66-.51,3.22-.77,4.83a41.56,41.56,0,0,0-.57,4.83c-.11,2.57-1.73,4.06-4.52,4.9-.7.21-1.34.52-2,.79-1.88.74-1.9,2.83-.11,3.75a8.5,8.5,0,0,0,3.46.91c1.56.11,3.13.07,4.69.17a55.21,55.21,0,0,1,7.38,1c3.47.71,5,.05,6.29-2.51.71-1.38,1.19-2.84,1.85-4.24a37.65,37.65,0,0,1,2-3.81,10.47,10.47,0,0,0,1.6-4.69,22.46,22.46,0,0,0,.17-3.17,4.61,4.61,0,0,0-2.28-4.09,12.62,12.62,0,0,0-4.49-1.39c-2.2-.32-4.42-.62-6.6-1A7.61,7.61,0,0,1,74.05-.26c-.6-.45-1.25-.88-1.91-1.3a4.23,4.23,0,0,0-2.68-.65"/><path class="cls-21" d="M39-5.37c-.67.15-1.36.25-2,.44a6.76,6.76,0,0,0-4.37,4,10,10,0,0,0-.94,3.73,3.78,3.78,0,0,0,2.73,4.09,9.58,9.58,0,0,0,4.1.22,13,13,0,0,0,5.63-1.66A10.54,10.54,0,0,0,46.3,3.56c1.2-1.32,2.28-2.7,3.47-4,.86-1,1.12-1.86.35-2.44A6.19,6.19,0,0,0,48-4a32.83,32.83,0,0,0-8.89-1.39Z"/><path class="cls-21" d="M11.28-6.95c-2.54.5-3.54,2.08-4.49,3.68a7.28,7.28,0,0,0-.67,1.58C5.74-.4,6.26,1,8.41,1.47a9.62,9.62,0,0,0,4.4,0C14.6,1,15.65,0,15.75-1.33a5.27,5.27,0,0,0-2.26-5,3.43,3.43,0,0,0-2.11-.64"/><path class="cls-22" d="M36.94-9.26a22.45,22.45,0,0,0-2.39.45A7.2,7.2,0,0,0,30.34-5,26.36,26.36,0,0,0,28,1.76a16.69,16.69,0,0,1-4,7.79,20.75,20.75,0,0,0-2,2.23c-1.57,2.16-1.51,3,.68,4.8A12.54,12.54,0,0,0,28.32,19c1.69.32,3.78-.08,4.77-1.37a33.79,33.79,0,0,0,2.39-3.45c1.3-2.17,3.62-3.46,6.44-4.31,1.77-.54,3.56-1,5.36-1.52A6.89,6.89,0,0,0,50.8,6.22a15.47,15.47,0,0,1,6.62-4.17,8.28,8.28,0,0,0,1.24-.58C60.38.47,61-.84,60.38-2.41a8,8,0,0,0-4.3-4.68A11.25,11.25,0,0,0,52.35-8c-2.24-.18-4.47-.39-6.7-.58l-6.9-.57L37-9.26Z"/><path class="cls-17" d="M6.3,59.46A21.54,21.54,0,0,0,4,59.9c-1.4.42-2.66,1-3.07,2.22-.36,1.07.27,2,1,2.79a43.84,43.84,0,0,0,3.53,3.4,22.94,22.94,0,0,0,2.77,2.15c2.3,1.5,5.15,2.05,8,2.54a16,16,0,0,0,5,.2,18.77,18.77,0,0,0,5.86-1.85,11.31,11.31,0,0,0,3.44-2.24c1-1.14.4-2.37-1-2.73-1.67-.45-3.4-.79-5.06-1.24-2-.56-4.08-1.11-6-1.81-2.73-1-5.37-2.1-8-3.15a11.24,11.24,0,0,0-4-.72"/><path class="cls-23" d="M7.64-14.59a9.63,9.63,0,0,0-5.26,2.24A10.78,10.78,0,0,0-.2-8.68c-.93,2-1.78,4-2.8,6A23.88,23.88,0,0,1-7.11,2.84a5.06,5.06,0,0,1-3.72,1.32A44.94,44.94,0,0,0-21.65,5.28,18.63,18.63,0,0,0-27.47,8a16.27,16.27,0,0,0-4.81,4.67c-2.14,3.42-.72,7.61,4.11,9.31a7.31,7.31,0,0,0,3.26.31c2.57-.25,5.11-.66,7.67-1a11.5,11.5,0,0,0,6.67-2.9,34.23,34.23,0,0,0,4.09-4.48,11.28,11.28,0,0,0,1.56-3.58c.62-2.12,1.6-2.06,3.66-2.12,2.91-.08,5.76-.38,8.62-.74,1.35-.18,2.74-.21,4.11-.3,4.75-.34,9.06-2.29,9.91-6.13a9.31,9.31,0,0,0-.17-3.52C20.89-4.34,20.43-6.19,20-8a6.2,6.2,0,0,0-2.19-3.54,12.88,12.88,0,0,0-7-2.93c-1-.11-2-.06-3.06-.09Z"/><path class="cls-17" d="M108.73-18.62a12.47,12.47,0,0,0-3.94,1.21c-2.45,1.33-3.75,3.12-3.57,5.34a34,34,0,0,0,1.18,4.62,26.39,26.39,0,0,1,.65,3.81,5.72,5.72,0,0,1-.72,3A8.53,8.53,0,0,0,101.75,1c-.38,1.41.73,2.54,2.67,2.65a9.88,9.88,0,0,0,2.67-.22,2.55,2.55,0,0,0,2.12-2.28A13,13,0,0,1,110.55-4c.89-1.51,1.77-3,2.68-4.53,1.12-1.84,2.18-3.7,2.09-5.77s-1.79-3.75-4.77-4.17c-.57-.08-1.15-.1-1.73-.15"/><path class="cls-24" d="M18.94,30.65c-.73.16-1.5.28-2.2.51C14,32,14,34.91,16.06,36.34a6.66,6.66,0,0,0,6.52.29c2.26-1.4,2.53-4.37-.11-5.47A7.83,7.83,0,0,0,19,30.65"/><path class="cls-25" d="M101.26,26.32a4,4,0,0,0-2.21,2.16c-.3.78-.21,1.07.68,1.51a3.16,3.16,0,0,0,2.59.09,1.66,1.66,0,0,0,.84-1.81,4.41,4.41,0,0,0-.37-1.15,1.27,1.27,0,0,0-1.43-.8"/><path class="cls-17" d="M80,12.78a13.89,13.89,0,0,0-2,.45,4,4,0,0,0-2.68,3.3c-.3,2,.68,3.74,2.2,5.32a2.13,2.13,0,0,0,3,.29c2.09-1.16,3.89-2.49,4.59-4.46.8-2.26-.48-4.4-3.73-4.75l-1.24-.15"/></g><path class="cls-26" d="M62.4,17a5.76,5.76,0,0,1,1.71,0c.65.06,1.29.28,1.94.34,6.09.53,11.51,2.35,14.45,9.16a2.05,2.05,0,0,0,2.73,1.32,20.52,20.52,0,0,1,12.91.57c4.65,1.65,9.24,3.5,13.81,5.39,5.76,2.37,11.21,2,16.43-1.84a13.78,13.78,0,0,1,7.52-2.62c3.65-.2,9.23-1.35,10.58,2.76.92,2.78-2.09,5.28-3,7.89-.43,1.22-1.65,2.72-1,3.93.48.85,1.34.33,1.8.32,1.71,0,3.42,0,5.12-.17,6.52-.59,12.84,6.32,11.74,9.5-.15.43-7.92-.86-11.1.91-2.12,1.18-4.13,2.6-6.24,3.81-3.2,1.84-6.42,3.62-9.66,5.37a9.27,9.27,0,0,1-7.18.83c-2.75-.74-3.53.25-3,3.33.65,3.7,0,5.48-3.09,6.86-5.5,2.45-11,5-16.63,6.94-6.22,2.18-12.67,2.94-19.09,1.06a116.09,116.09,0,0,0-26.8-4.48,8.7,8.7,0,0,1-8-5.43,11.19,11.19,0,0,0-6.8-6.52c-3-1.12-6.09-2-9.12-3-5.86-2.07-8.3-6.12-7.48-12.55a3.48,3.48,0,0,0-1.25-3.45c-1.65-1.35-3.39-2.56-5-3.94-1.8-1.53-4.3-2.48-5.28-4.77a2.24,2.24,0,0,1,0-1.61A6.1,6.1,0,0,1,16,34.43c3.22-2.14,6.46-4.25,9.79-6.17A27.14,27.14,0,0,1,31.2,26c4.83-1.55,9.22-.22,13.46,2.58a31.62,31.62,0,0,0,6.93,3.57c3.79,1.29,6.3-.67,7-5a12.89,12.89,0,0,0,.12-3C58.37,20.66,59.43,17.68,62.4,17Z"/><path class="cls-8" d="M190.12,64v5.09a.43.43,0,1,1-.85,0V65h0l-2,3.13a.47.47,0,0,1-.82,0l-2-3.18h0v4.16c0,.28-.14.43-.41.44a.4.4,0,0,1-.42-.44V64.06a.55.55,0,0,1,.56-.59.61.61,0,0,1,.54.34l2.17,3.49L189,63.82a.69.69,0,0,1,.56-.35A.51.51,0,0,1,190.12,64Z"/><path class="cls-8" d="M192,64.74a3.94,3.94,0,0,1,.46-.56,3.15,3.15,0,0,1,2.15-.76,3.42,3.42,0,0,1,1.27.22,2.68,2.68,0,0,1,1.34,1.1,3.22,3.22,0,0,1,.5,1.79,3.3,3.3,0,0,1-.5,1.8,3,3,0,0,1-.47.55,3.1,3.1,0,0,1-2.14.76,3.5,3.5,0,0,1-1.27-.23A2.71,2.71,0,0,1,192,68.33a3.3,3.3,0,0,1-.5-1.8A3.22,3.22,0,0,1,192,64.74Zm.56,2.85a2.22,2.22,0,0,0,2,1.27,2.18,2.18,0,0,0,1.62-.65,1.89,1.89,0,0,0,.42-.62,2.56,2.56,0,0,0,.2-1.06,2.49,2.49,0,0,0-.2-1,2.16,2.16,0,0,0-2-1.28,2.2,2.2,0,0,0-1.63.65,2.3,2.3,0,0,0-.61,1.68A2.9,2.9,0,0,0,192.58,67.59Z"/><path class="cls-8" d="M204.5,63.92v5.15a.45.45,0,0,1-.46.51.6.6,0,0,1-.49-.22L200,64.87h0v4.27c0,.28-.14.43-.41.44a.4.4,0,0,1-.42-.44V64a.48.48,0,0,1,.47-.52.62.62,0,0,1,.5.23l3.55,4.48h0V63.92c0-.28.14-.44.41-.45A.41.41,0,0,1,204.5,63.92Z"/><path class="cls-8" d="M212,66.92a2.7,2.7,0,0,1-.47,1.57A3.13,3.13,0,0,1,211,69a3.08,3.08,0,0,1-2,.67,3.4,3.4,0,0,1-1.26-.23,2.75,2.75,0,0,1-1.35-1.08,3.3,3.3,0,0,1-.5-1.8,3.22,3.22,0,0,1,.5-1.79,3.48,3.48,0,0,1,.47-.56,3.12,3.12,0,0,1,2.14-.76,4.32,4.32,0,0,1,.74.07,4.69,4.69,0,0,1,.82.28,2.17,2.17,0,0,1,.85.69.48.48,0,0,1,.1.29.4.4,0,0,1-.41.41.5.5,0,0,1-.32-.14A2.15,2.15,0,0,0,209,64.2a2.18,2.18,0,0,0-1.63.65,2.36,2.36,0,0,0-.62,1.68,2.74,2.74,0,0,0,.2,1.06,2.2,2.2,0,0,0,2,1.27,2,2,0,0,0,2.11-1.69h-1.4c-.27,0-.41-.13-.42-.39s.15-.38.42-.39h1.78a.42.42,0,0,1,.45.46Z"/><path class="cls-8" d="M213.56,64.74a3.48,3.48,0,0,1,.47-.56,3.13,3.13,0,0,1,2.15-.76,3.33,3.33,0,0,1,1.26.22,2.67,2.67,0,0,1,1.35,1.1,3.22,3.22,0,0,1,.5,1.79,3.3,3.3,0,0,1-.5,1.8,3,3,0,0,1-.47.55,3.11,3.11,0,0,1-2.14.76,3.46,3.46,0,0,1-1.27-.23,2.8,2.8,0,0,1-1.35-1.08,3.3,3.3,0,0,1-.5-1.8A3.22,3.22,0,0,1,213.56,64.74Zm.57,2.85a2.22,2.22,0,0,0,2.05,1.27,2.16,2.16,0,0,0,1.61-.65,1.75,1.75,0,0,0,.42-.62,2.59,2.59,0,0,0,.21-1.06,2.51,2.51,0,0,0-.21-1,2.14,2.14,0,0,0-2-1.28,2.18,2.18,0,0,0-1.63.65,2.36,2.36,0,0,0-.62,1.68A2.93,2.93,0,0,0,214.13,67.59Z"/><path class="cls-8" d="M225.12,68.75q.4,0,.42.39c0,.26-.15.38-.42.39h-4a.43.43,0,0,1-.47-.46V63.93a.42.42,0,0,1,.43-.46.41.41,0,0,1,.43.46v4.82Z"/><path class="cls-8" d="M227.45,63.93v5.2a.41.41,0,0,1-.43.45.41.41,0,0,1-.43-.45v-5.2a.42.42,0,0,1,.43-.46A.41.41,0,0,1,227.45,63.93Z"/><path class="cls-8" d="M234.41,66.24v2.89a.39.39,0,0,1-.42.45.41.41,0,0,1-.43-.45V67.7H229.8v1.44a.39.39,0,0,1-.42.44c-.27,0-.4-.16-.41-.44v-2.9a3.76,3.76,0,0,1,.18-1.21,2.12,2.12,0,0,1,.22-.48,4,4,0,0,1,.57-.67,2.55,2.55,0,0,1,1.75-.46A2.5,2.5,0,0,1,234.41,66.24Zm-.85,0c0-1.33-.66-2-1.88-2s-1.88.68-1.88,2v.71h3.76Z"/><path class="cls-8" d="M241.31,63.92v5.15a.45.45,0,0,1-.47.51.57.57,0,0,1-.48-.22l-3.57-4.49h0v4.27a.4.4,0,0,1-.41.44.41.41,0,0,1-.43-.44V64a.48.48,0,0,1,.48-.52.59.59,0,0,1,.49.23l3.56,4.48h0V63.92a.4.4,0,0,1,.41-.45A.41.41,0,0,1,241.31,63.92Z"/><path class="cls-8" d="M250.83,66.24v2.89a.43.43,0,1,1-.85,0V67.7h-3.76v1.44a.4.4,0,0,1-.43.44.4.4,0,0,1-.41-.44v-2.9a4.05,4.05,0,0,1,.18-1.21,2.14,2.14,0,0,1,.23-.48,3.58,3.58,0,0,1,.57-.67,2.53,2.53,0,0,1,1.75-.46A2.51,2.51,0,0,1,250.83,66.24Zm-.85,0c0-1.33-.67-2-1.88-2s-1.88.68-1.88,2v.71H250Z"/><path class="cls-8" d="M257.38,68.83a.54.54,0,0,1,.11.32.39.39,0,0,1-.42.43.43.43,0,0,1-.39-.2L255,67.23h-1.8v1.9c0,.29-.14.44-.42.45a.41.41,0,0,1-.43-.45V64a.43.43,0,0,1,.47-.45h2.64c1.29,0,2,.62,2,1.8a1.64,1.64,0,0,1-1.44,1.8v0Zm-2-2.38c.78,0,1.19-.36,1.19-1.07s-.41-1.07-1.19-1.07H253.2v2.14Z"/><path class="cls-8" d="M264.22,68.44a3,3,0,0,1-2.55,1.2,3.48,3.48,0,0,1-1.26-.23,2.71,2.71,0,0,1-1.34-1.08,3.22,3.22,0,0,1-.5-1.8,3.14,3.14,0,0,1,.5-1.79,3.35,3.35,0,0,1,.46-.56,3.12,3.12,0,0,1,2.14-.76,3,3,0,0,1,2.46,1.09.42.42,0,0,1-.33.68.4.4,0,0,1-.34-.17,2.14,2.14,0,0,0-1.78-.82,2.2,2.2,0,0,0-1.63.65,2.36,2.36,0,0,0-.62,1.68,2.93,2.93,0,0,0,.2,1.06,2.22,2.22,0,0,0,2.05,1.27,2.12,2.12,0,0,0,1.85-.92.41.41,0,0,1,.75.25A.54.54,0,0,1,264.22,68.44Z"/><path class="cls-8" d="M271,63.93v5.2a.4.4,0,0,1-.42.45.41.41,0,0,1-.43-.45V66.9h-3.75v2.23c0,.29-.14.44-.42.45a.41.41,0,0,1-.43-.45v-5.2a.41.41,0,0,1,.43-.46c.28,0,.41.17.42.46v2.19h3.75V63.93a.41.41,0,0,1,.43-.46A.41.41,0,0,1,271,63.93Z"/><path class="cls-8" d="M278,66.24v2.89c0,.29-.14.44-.42.45a.41.41,0,0,1-.43-.45V67.7h-3.76v1.44a.39.39,0,0,1-.42.44c-.27,0-.4-.16-.41-.44v-2.9a3.76,3.76,0,0,1,.18-1.21,2.12,2.12,0,0,1,.22-.48,4,4,0,0,1,.57-.67,2.55,2.55,0,0,1,1.75-.46A2.51,2.51,0,0,1,278,66.24Zm-.85,0c0-1.33-.66-2-1.88-2s-1.88.68-1.88,2v.71h3.76Z"/><path class="cls-8" d="M284.08,68.75q.41,0,.42.39c0,.26-.15.38-.42.39H280a.43.43,0,0,1-.47-.46V64a.43.43,0,0,1,.47-.45h4.11c.27,0,.41.13.42.38a.38.38,0,0,1-.42.4h-3.73v1.81h3.06c.27,0,.42.13.43.38a.39.39,0,0,1-.43.4h-3.06v1.85Z"/><path class="cls-8" d="M286.08,64.74a3.35,3.35,0,0,1,.46-.56,3.13,3.13,0,0,1,2.15-.76,3.33,3.33,0,0,1,1.26.22,2.67,2.67,0,0,1,1.35,1.1,3.22,3.22,0,0,1,.5,1.79,3.3,3.3,0,0,1-.5,1.8,3,3,0,0,1-.47.55,3.11,3.11,0,0,1-2.14.76,3.46,3.46,0,0,1-1.27-.23,2.71,2.71,0,0,1-1.34-1.08,3.22,3.22,0,0,1-.51-1.8A3.14,3.14,0,0,1,286.08,64.74Zm.56,2.85a2.22,2.22,0,0,0,2.05,1.27,2.16,2.16,0,0,0,1.61-.65,1.75,1.75,0,0,0,.42-.62,2.59,2.59,0,0,0,.21-1.06,2.51,2.51,0,0,0-.21-1,2.14,2.14,0,0,0-2-1.28,2.18,2.18,0,0,0-1.63.65,2.36,2.36,0,0,0-.62,1.68A2.93,2.93,0,0,0,286.64,67.59Z"/><path class="cls-8" d="M297.63,68.75q.4,0,.42.39c0,.26-.15.38-.42.39h-4a.42.42,0,0,1-.46-.46V63.93a.41.41,0,0,1,.43-.46c.27,0,.41.17.42.46v4.82Z"/><path class="cls-8" d="M299,64.74a3.35,3.35,0,0,1,.46-.56,3.13,3.13,0,0,1,2.15-.76,3.33,3.33,0,0,1,1.26.22,2.67,2.67,0,0,1,1.35,1.1,3.22,3.22,0,0,1,.5,1.79,3.3,3.3,0,0,1-.5,1.8,3,3,0,0,1-.47.55,3.11,3.11,0,0,1-2.14.76,3.5,3.5,0,0,1-1.27-.23A2.71,2.71,0,0,1,299,68.33a3.22,3.22,0,0,1-.51-1.8A3.14,3.14,0,0,1,299,64.74Zm.56,2.85a2.22,2.22,0,0,0,2.05,1.27,2.16,2.16,0,0,0,1.61-.65,1.93,1.93,0,0,0,.43-.62,2.56,2.56,0,0,0,.2-1.06,2.49,2.49,0,0,0-.2-1,2.16,2.16,0,0,0-2-1.28,2.18,2.18,0,0,0-1.63.65,2.36,2.36,0,0,0-.62,1.68A2.93,2.93,0,0,0,299.58,67.59Z"/><path class="cls-8" d="M312,66.92a2.64,2.64,0,0,1-.48,1.57A3.13,3.13,0,0,1,311,69a3.08,3.08,0,0,1-2,.67,3.4,3.4,0,0,1-1.26-.23,2.8,2.8,0,0,1-1.35-1.08,3.3,3.3,0,0,1-.5-1.8,3.22,3.22,0,0,1,.5-1.79,3.48,3.48,0,0,1,.47-.56,3.12,3.12,0,0,1,2.14-.76,4.32,4.32,0,0,1,.74.07,4.43,4.43,0,0,1,.82.28,2.17,2.17,0,0,1,.85.69.48.48,0,0,1,.1.29.39.39,0,0,1-.4.41.5.5,0,0,1-.33-.14A2.15,2.15,0,0,0,309,64.2a2.18,2.18,0,0,0-1.63.65,2.36,2.36,0,0,0-.62,1.68,2.93,2.93,0,0,0,.2,1.06,2.2,2.2,0,0,0,2,1.27,2,2,0,0,0,2.11-1.69h-1.39c-.28,0-.42-.13-.43-.39s.15-.38.43-.39h1.77a.43.43,0,0,1,.46.46Z"/><path class="cls-8" d="M315.68,69.13a.43.43,0,1,1-.85,0V67l-2.31-2.77a.49.49,0,0,1-.12-.32.39.39,0,0,1,.42-.43.43.43,0,0,1,.34.19l2.1,2.52,2.1-2.51a.41.41,0,0,1,.35-.2.4.4,0,0,1,.41.42.42.42,0,0,1-.11.3L315.68,67Z"/><path class="cls-8" d="M324.87,63.53a1.87,1.87,0,1,1,0,3.74h-2.29v1.86a.43.43,0,1,1-.85,0V64a.42.42,0,0,1,.46-.45Zm-.08,3c.78,0,1.2-.37,1.2-1.09s-.42-1.09-1.2-1.09h-2.21v2.18Z"/><path class="cls-8" d="M333.1,68.83a.56.56,0,0,1,.12.32.39.39,0,0,1-.42.43.43.43,0,0,1-.39-.2l-1.68-2.15h-1.8v1.9a.43.43,0,1,1-.85,0V64a.42.42,0,0,1,.46-.45h2.64c1.29,0,2,.62,2,1.8a1.63,1.63,0,0,1-1.44,1.8v0Zm-2-2.38c.78,0,1.2-.36,1.2-1.07s-.42-1.07-1.2-1.07h-2.17v2.14Z"/><path class="cls-8" d="M334.79,64.74a3.48,3.48,0,0,1,.47-.56,3.13,3.13,0,0,1,2.15-.76,3.37,3.37,0,0,1,1.26.22,2.64,2.64,0,0,1,1.34,1.1,3.14,3.14,0,0,1,.51,1.79,3.22,3.22,0,0,1-.51,1.8,2.56,2.56,0,0,1-.46.55,3.11,3.11,0,0,1-2.14.76,3.42,3.42,0,0,1-1.27-.23,2.75,2.75,0,0,1-1.35-1.08,3.3,3.3,0,0,1-.5-1.8A3.22,3.22,0,0,1,334.79,64.74Zm.57,2.85a2.2,2.2,0,0,0,2.05,1.27,2.16,2.16,0,0,0,1.61-.65,1.75,1.75,0,0,0,.42-.62,2.59,2.59,0,0,0,.21-1.06,2.51,2.51,0,0,0-.21-1,2.15,2.15,0,0,0-2-1.28,2.18,2.18,0,0,0-1.63.65,2.36,2.36,0,0,0-.62,1.68A2.74,2.74,0,0,0,335.36,67.59Z"/><path class="cls-8" d="M346.25,63.93v3.28a2.19,2.19,0,0,1-2.45,2.43,2.66,2.66,0,0,1-1.44-.33,2,2,0,0,1-.93-1.37.54.54,0,0,1,0-.11.4.4,0,0,1,.41-.42.39.39,0,0,1,.41.3,1.66,1.66,0,0,0,.18.49,1.93,1.93,0,0,0,.43.43,1.55,1.55,0,0,0,.95.23,1.46,1.46,0,0,0,1.6-1.65V63.93a.4.4,0,0,1,.42-.46A.42.42,0,0,1,346.25,63.93Z"/><path class="cls-8" d="M352.35,68.75a.38.38,0,0,1,.42.39c0,.26-.16.38-.42.39h-4.12a.43.43,0,0,1-.46-.46V64a.42.42,0,0,1,.46-.45h4.12c.26,0,.41.13.42.38a.39.39,0,0,1-.42.4h-3.73v1.81h3.05c.28,0,.42.13.43.38s-.15.39-.43.4h-3.05v1.85Z"/><path class="cls-8" d="M359.49,68.44a3,3,0,0,1-2.54,1.2,3.4,3.4,0,0,1-1.26-.23,2.75,2.75,0,0,1-1.35-1.08,3.3,3.3,0,0,1-.5-1.8,3.22,3.22,0,0,1,.5-1.79,3.48,3.48,0,0,1,.47-.56,3.12,3.12,0,0,1,2.14-.76,3,3,0,0,1,2.45,1.09.36.36,0,0,1,.09.27.39.39,0,0,1-.41.41.41.41,0,0,1-.35-.17A2.11,2.11,0,0,0,357,64.2a2.18,2.18,0,0,0-1.63.65,2.36,2.36,0,0,0-.62,1.68,2.74,2.74,0,0,0,.2,1.06,2.2,2.2,0,0,0,2,1.27,2.12,2.12,0,0,0,1.84-.92.41.41,0,0,1,.35-.17.41.41,0,0,1,.41.42A.45.45,0,0,1,359.49,68.44Z"/><path class="cls-8" d="M365.49,63.53c.27,0,.41.13.42.38a.38.38,0,0,1-.42.4h-2v4.82c0,.29-.14.44-.42.45a.41.41,0,0,1-.43-.45V64.31h-2a.38.38,0,0,1-.42-.4c0-.25.15-.37.42-.38Z"/><path class="cls-8" d="M366.7,65.86a.47.47,0,0,1,.49-.5.46.46,0,0,1,.5.5.46.46,0,0,1-.5.5A.46.46,0,0,1,366.7,65.86Zm0,3.22a.47.47,0,0,1,.49-.49.46.46,0,0,1,.5.49.45.45,0,0,1-.5.5A.46.46,0,0,1,366.7,69.08Z"/><path class="cls-8" d="M217,79.86a3.33,3.33,0,0,0,1.46.23c1.91,0,2.57.51,2.57,1.69s-1,1.89-2.58,1.89a4.57,4.57,0,0,1-1.4-.18,2.34,2.34,0,0,1-1.17-.76.56.56,0,0,1-.1-.3.39.39,0,0,1,.4-.41.38.38,0,0,1,.31.13,1.89,1.89,0,0,0,.37.32,2.86,2.86,0,0,0,1.64.42c1,0,1.68-.42,1.68-1.09a.56.56,0,0,0-.29-.59,3.07,3.07,0,0,0-1.52-.27c-1.85,0-2.5-.5-2.5-1.6s1-1.89,2.54-1.89a3.84,3.84,0,0,1,1.16.15,2.38,2.38,0,0,1,1.08.63.44.44,0,0,1-.29.74.47.47,0,0,1-.33-.15,2.31,2.31,0,0,0-1.67-.59c-1,0-1.63.42-1.63,1.09A.51.51,0,0,0,217,79.86Z"/><path class="cls-8" d="M227.41,78v3c0,1.78-.89,2.7-2.57,2.7a2.38,2.38,0,0,1-2.61-2.7V78c0-.29.15-.45.43-.45a.41.41,0,0,1,.43.45v3c0,1.27.6,1.93,1.75,1.93s1.74-.66,1.74-1.93V78c0-.28.14-.44.41-.44S227.4,77.67,227.41,78Z"/><path class="cls-8" d="M234,82.86a.54.54,0,0,1,.11.32.39.39,0,0,1-.42.43.41.41,0,0,1-.38-.2l-1.69-2.15h-1.8v1.9c0,.29-.14.44-.42.45a.41.41,0,0,1-.43-.45V78a.43.43,0,0,1,.47-.46H232c1.29,0,2,.62,2,1.8a1.63,1.63,0,0,1-1.44,1.8v0Zm-2-2.38c.78,0,1.19-.36,1.19-1.07s-.41-1.07-1.19-1.07h-2.18v2.14Z"/><path class="cls-8" d="M240.75,77.92a.48.48,0,0,1-.06.25l-2.37,5.08a.5.5,0,0,1-.49.36.51.51,0,0,1-.51-.36L235,78.16a.44.44,0,0,1,0-.22.39.39,0,0,1,.43-.43.38.38,0,0,1,.39.27l2.11,4.59h0l2.12-4.6a.36.36,0,0,1,.36-.26A.38.38,0,0,1,240.75,77.92Z"/><path class="cls-8" d="M246.45,82.78q.41,0,.42.39c0,.26-.15.38-.42.39h-4.11a.43.43,0,0,1-.47-.46V78a.43.43,0,0,1,.47-.46h4.11c.27,0,.41.13.42.38a.38.38,0,0,1-.42.4h-3.73v1.81h3.06c.27,0,.42.13.43.38a.39.39,0,0,1-.43.4h-3.06v1.85Z"/><path class="cls-8" d="M250.9,83.16a.43.43,0,1,1-.85,0V81l-2.31-2.77a.5.5,0,0,1-.13-.31.39.39,0,0,1,.42-.43.41.41,0,0,1,.34.18l2.11,2.52,2.1-2.51a.38.38,0,0,1,.34-.19.39.39,0,0,1,.42.41.42.42,0,0,1-.11.3L250.9,81Z"/><path class="cls-8" d="M255.24,78v5.2c0,.29-.14.44-.42.45a.41.41,0,0,1-.43-.45V78c0-.29.15-.45.43-.45S255.23,77.67,255.24,78Z"/><path class="cls-8" d="M262.23,78V83.1a.45.45,0,0,1-.47.51.57.57,0,0,1-.48-.22l-3.57-4.49h0v4.27a.4.4,0,0,1-.41.44.41.41,0,0,1-.43-.44V78a.47.47,0,0,1,.48-.51.56.56,0,0,1,.49.22l3.56,4.48h0V78c0-.28.14-.44.41-.44S262.22,77.67,262.23,78Z"/><path class="cls-8" d="M269.68,81a2.7,2.7,0,0,1-.47,1.57,3.18,3.18,0,0,1-.45.48,3.13,3.13,0,0,1-2,.67,3.28,3.28,0,0,1-1.26-.23,2.71,2.71,0,0,1-1.34-1.08,3.3,3.3,0,0,1-.5-1.8,3.22,3.22,0,0,1,.5-1.79,3.94,3.94,0,0,1,.46-.56,3.14,3.14,0,0,1,2.14-.76,4.54,4.54,0,0,1,.75.07,4.36,4.36,0,0,1,.81.28,2.19,2.19,0,0,1,.85.69.43.43,0,0,1,.1.29.39.39,0,0,1-.4.41.44.44,0,0,1-.32-.14,2.35,2.35,0,0,0-3.41-.17,2.3,2.3,0,0,0-.61,1.68,2.9,2.9,0,0,0,.19,1.06,2.22,2.22,0,0,0,2.05,1.27,2,2,0,0,0,2.12-1.69h-1.4a.36.36,0,0,1-.42-.39c0-.25.14-.38.42-.38h1.77a.41.41,0,0,1,.46.45Z"/><path class="cls-8" d="M278.22,77.56c.27,0,.41.13.42.38a.38.38,0,0,1-.42.4h-2v4.82c0,.29-.14.44-.42.45a.41.41,0,0,1-.43-.45V78.34h-2a.38.38,0,0,1-.42-.4c0-.25.15-.37.42-.38Z"/><path class="cls-8" d="M285.15,78v5.2a.4.4,0,0,1-.42.45.41.41,0,0,1-.43-.45V80.93h-3.75v2.23c0,.29-.14.44-.42.45a.41.41,0,0,1-.43-.45V78c0-.29.15-.45.43-.45s.41.16.42.45v2.19h3.75V78a.41.41,0,0,1,.43-.45A.39.39,0,0,1,285.15,78Z"/><path class="cls-8" d="M291.34,82.78q.41,0,.42.39c0,.26-.15.38-.42.39h-4.11a.43.43,0,0,1-.47-.46V78a.43.43,0,0,1,.47-.46h4.11c.27,0,.41.13.42.38a.38.38,0,0,1-.42.4h-3.72v1.81h3.05c.28,0,.42.13.43.38s-.15.39-.43.4h-3.05v1.85Z"/><path class="cls-8" d="M296.55,79.86a3.36,3.36,0,0,0,1.46.23c1.91,0,2.58.51,2.58,1.69s-1,1.89-2.58,1.89a4.57,4.57,0,0,1-1.4-.18,2.38,2.38,0,0,1-1.18-.76.49.49,0,0,1-.09-.3c0-.25.14-.38.4-.41a.36.36,0,0,1,.3.13,2.24,2.24,0,0,0,.37.32,2.9,2.9,0,0,0,1.65.42c1,0,1.67-.42,1.67-1.09a.57.57,0,0,0-.28-.59,3.13,3.13,0,0,0-1.53-.27c-1.84,0-2.49-.5-2.49-1.6s1-1.89,2.54-1.89a3.88,3.88,0,0,1,1.16.15,2.38,2.38,0,0,1,1.08.63.41.41,0,0,1,.12.31.42.42,0,0,1-.42.43.49.49,0,0,1-.33-.15,2.29,2.29,0,0,0-1.66-.59c-1,0-1.63.42-1.63,1.09A.52.52,0,0,0,296.55,79.86Z"/><path class="cls-8" d="M306.38,77.56c.27,0,.41.13.42.38a.38.38,0,0,1-.42.4h-2v4.82a.43.43,0,1,1-.85,0V78.34h-2c-.27,0-.42-.15-.42-.4s.15-.37.42-.38Z"/><path class="cls-8" d="M312.43,82.78q.4,0,.42.39c0,.26-.15.38-.42.39h-4.11a.43.43,0,0,1-.47-.46V78a.43.43,0,0,1,.47-.46h4.11c.27,0,.41.13.42.38a.38.38,0,0,1-.42.4h-3.72v1.81h3.05c.28,0,.42.13.43.38s-.15.39-.43.4h-3.05v1.85Z"/><path class="cls-8" d="M317.3,77.56a1.87,1.87,0,1,1,0,3.74H315v1.86c0,.29-.14.44-.42.45a.41.41,0,0,1-.43-.45V78a.43.43,0,0,1,.47-.46Zm-.09,3c.78,0,1.2-.37,1.2-1.09s-.42-1.09-1.2-1.09H315v2.18Z"/><path class="cls-8" d="M323.64,77.56a1.87,1.87,0,1,1,0,3.74h-2.29v1.86c0,.29-.14.44-.42.45a.41.41,0,0,1-.43-.45V78a.43.43,0,0,1,.47-.46Zm-.08,3c.78,0,1.2-.37,1.2-1.09s-.42-1.09-1.2-1.09h-2.21v2.18Z"/><path class="cls-8" d="M331.43,82.78a.38.38,0,0,1,.42.39c0,.26-.16.38-.42.39h-4.12a.43.43,0,0,1-.46-.46V78a.43.43,0,0,1,.46-.46h4.12c.26,0,.41.13.42.38a.39.39,0,0,1-.42.4H327.7v1.81h3.05c.28,0,.42.13.43.38s-.15.39-.43.4H327.7v1.85Z"/><path class="cls-8" d="M334.09,79.86a3.31,3.31,0,0,0,1.46.23c1.9,0,2.57.51,2.57,1.69s-1,1.89-2.58,1.89a4.57,4.57,0,0,1-1.4-.18,2.29,2.29,0,0,1-1.17-.76.49.49,0,0,1-.1-.3.39.39,0,0,1,.4-.41.36.36,0,0,1,.3.13,2.24,2.24,0,0,0,.37.32,2.9,2.9,0,0,0,1.65.42c1,0,1.67-.42,1.67-1.09a.57.57,0,0,0-.28-.59,3.09,3.09,0,0,0-1.52-.27c-1.85,0-2.5-.5-2.5-1.6s1-1.89,2.54-1.89a3.88,3.88,0,0,1,1.16.15,2.38,2.38,0,0,1,1.08.63.41.41,0,0,1,.12.31.42.42,0,0,1-.42.43.49.49,0,0,1-.33-.15,2.29,2.29,0,0,0-1.66-.59c-1,0-1.63.42-1.63,1.09A.51.51,0,0,0,334.09,79.86Z"/></svg>