<svg id="Layer_1" data-name="Layer 1" xmlns="http://www.w3.org/2000/svg" xmlns:xlink="http://www.w3.org/1999/xlink" viewBox="0 0 396.85 99.21"><defs><style>.cls-1,.cls-10,.cls-12,.cls-13,.cls-14,.cls-15,.cls-16,.cls-18,.cls-19,.cls-20,.cls-21,.cls-22{fill:none;}.cls-2{fill:#fff;}.cls-3{clip-path:url(#clip-path);}.cls-4,.cls-8,.cls-9{fill:#7bc68a;}.cls-22,.cls-4,.cls-7,.cls-8,.cls-9{stroke:#231f20;}.cls-11,.cls-17,.cls-18,.cls-19,.cls-20,.cls-22,.cls-4,.cls-7,.cls-8,.cls-9{stroke-miterlimit:10;}.cls-4{stroke-width:1.26px;}.cls-5{fill:#e9d4bf;}.cls-6{clip-path:url(#clip-path-2);}.cls-7{fill:#91b2dd;}.cls-7,.cls-9{stroke-width:0.81px;}.cls-8{stroke-width:0.77px;}.cls-10,.cls-11,.cls-12,.cls-13,.cls-14,.cls-15,.cls-16,.cls-17,.cls-18,.cls-19,.cls-20,.cls-21{stroke:#000;}.cls-10,.cls-12,.cls-13,.cls-14,.cls-15,.cls-16,.cls-21{stroke-linecap:round;stroke-linejoin:round;}.cls-10{stroke-width:0.58px;}.cls-11{fill:#18b366;stroke-width:0.84px;}.cls-12{stroke-width:0.5px;}.cls-13{stroke-width:0.28px;}.cls-14,.cls-20{stroke-width:0.56px;}.cls-15{stroke-width:0.59px;}.cls-16,.cls-17{stroke-width:0.7px;}.cls-17{fill:#a5d497;}.cls-18{stroke-width:0.98px;}.cls-19,.cls-21{stroke-width:0.42px;}.cls-22{stroke-width:0.75px;}.cls-23{clip-path:url(#clip-path-3);}</style><clipPath id="clip-path"><path class="cls-1" d="M-201.51,14.1h2.8c1.07.19,2.13.45,3.2.55,10,.87,18.88,3.85,23.71,15a3.38,3.38,0,0,0,4.48,2.16,33.82,33.82,0,0,1,21.18.93c7.62,2.71,15.16,5.75,22.67,8.84,9.45,3.9,18.4,3.37,27-3a22.43,22.43,0,0,1,12.34-4.3c6-.34,15.15-2.22,17.38,4.53,1.5,4.56-3.44,8.66-5,12.94a66.15,66.15,0,0,0-1.59,6.45,18.84,18.84,0,0,0,3,.53c2.8,0,5.61,0,8.4-.28,10.69-1,19.62,8.55,19.25,15.58-.66-.15-1.28.41-1.86.27a27.41,27.41,0,0,0-16.35,1.23c-3.68,1.51-6.78,4.26-10.24,6.25Q-79.06,86.35-87,90.63A15.27,15.27,0,0,1-98.81,92c-4.51-1.23-5.79.41-4.91,5.46,1.07,6.07,0,9-5.08,11.26-9,4-18,8.13-27.28,11.38-10.21,3.59-20.8,4.83-31.33,1.75a190.12,190.12,0,0,0-44-7.36c-5.62-.29-10.7-2.93-13.19-8.9a18.31,18.31,0,0,0-11.16-10.7c-4.93-1.84-10-3.23-15-5-9.62-3.4-13.62-10-12.28-20.59A5.68,5.68,0,0,0-265,63.66c-2.7-2.22-5.55-4.21-8.22-6.47-3-2.51-5.79-5.22-8.67-7.84V46.72a33.27,33.27,0,0,1,4.23-4c5.28-3.51,10.6-7,16.06-10.13a45.32,45.32,0,0,1,8.93-3.69c7.93-2.54,15.14-.36,22.09,4.23A51.73,51.73,0,0,0-219.25,39c6.22,2.12,10.34-1.09,11.48-8.28a19.71,19.71,0,0,0,.2-5C-208.13,20.09-206.09,16.28-201.51,14.1Z"/></clipPath><clipPath id="clip-path-2"><path class="cls-1" d="M64.52,17.05h1.71c.66.11,1.3.27,2,.33,6.1.53,11.53,2.36,14.48,9.19a2.06,2.06,0,0,0,2.74,1.32,20.62,20.62,0,0,1,12.94.57c4.66,1.65,9.26,3.51,13.85,5.4,5.77,2.38,11.24,2.06,16.46-1.83a13.62,13.62,0,0,1,7.54-2.63c3.67-.21,9.26-1.36,10.62,2.76.92,2.79-2.1,5.29-3,7.91a37.22,37.22,0,0,0-1,3.94,10.32,10.32,0,0,0,1.81.32c1.71,0,3.43,0,5.13-.17,6.53-.59,12,5.23,11.77,9.52-.41-.09-.79.25-1.14.17a16.76,16.76,0,0,0-10,.75c-2.25.92-4.14,2.6-6.26,3.82q-4.8,2.76-9.68,5.38a9.37,9.37,0,0,1-7.2.84c-2.75-.75-3.54.25-3,3.33.65,3.71,0,5.5-3.11,6.88-5.51,2.46-11,5-16.67,7-6.23,2.2-12.7,3-19.13,1.07a117.34,117.34,0,0,0-26.87-4.5,8.71,8.71,0,0,1-8.06-5.43,11.2,11.2,0,0,0-6.82-6.54c-3-1.12-6.11-2-9.14-3-5.87-2.08-8.32-6.13-7.5-12.58a3.49,3.49,0,0,0-1.26-3.46c-1.65-1.35-3.39-2.57-5-4-1.81-1.53-3.54-3.19-5.3-4.79V37A20.62,20.62,0,0,1,18,34.52c3.22-2.15,6.47-4.27,9.81-6.19a27.94,27.94,0,0,1,5.46-2.26c4.84-1.55,9.24-.22,13.49,2.59a31.58,31.58,0,0,0,6.95,3.58c3.8,1.29,6.31-.67,7-5.06a11.85,11.85,0,0,0,.12-3C60.48,20.71,61.72,18.38,64.52,17.05Z"/></clipPath><clipPath id="clip-path-3"><path class="cls-1" d="M487.05,17.71h1.72c.65.11,1.3.28,2,.34,6.1.53,11.53,2.35,14.48,9.19a2.08,2.08,0,0,0,2.74,1.32,20.61,20.61,0,0,1,12.94.56c4.66,1.66,9.26,3.52,13.85,5.41,5.78,2.37,11.24,2,16.47-1.84a13.67,13.67,0,0,1,7.54-2.63c3.66-.21,9.25-1.36,10.61,2.77.92,2.79-2.1,5.29-3,7.91a39.84,39.84,0,0,0-1,3.94,12.92,12.92,0,0,0,1.81.32c1.71,0,3.43,0,5.13-.17,6.54-.59,12,5.23,11.77,9.52-.41-.09-.78.25-1.14.16a16.77,16.77,0,0,0-10,.75c-2.25.93-4.14,2.61-6.25,3.82-3.21,1.85-6.44,3.63-9.69,5.39a9.29,9.29,0,0,1-7.19.83c-2.76-.75-3.54.25-3,3.34.65,3.7,0,5.49-3.1,6.87-5.51,2.46-11,5-16.67,7-6.24,2.19-12.71,3-19.14,1.07A116.26,116.26,0,0,0,481,79,8.71,8.71,0,0,1,473,73.6a11.14,11.14,0,0,0-6.81-6.53c-3-1.13-6.11-2-9.14-3-5.88-2.07-8.33-6.13-7.5-12.57A3.48,3.48,0,0,0,448.25,48c-1.65-1.36-3.4-2.57-5-4-1.81-1.54-3.53-3.19-5.29-4.79V37.64a19.15,19.15,0,0,1,2.58-2.45c3.23-2.15,6.48-4.27,9.81-6.2a28.16,28.16,0,0,1,5.46-2.25c4.84-1.55,9.25-.22,13.49,2.58a30.74,30.74,0,0,0,7,3.58c3.8,1.3,6.31-.66,7-5a11.91,11.91,0,0,0,.12-3C483,21.37,484.26,19.05,487.05,17.71Z"/></clipPath></defs><path class="cls-2" d="M220.33,41.88V67.35a2.82,2.82,0,1,1-5.63,0V48h-.09l-9,14.63A3,3,0,0,1,203,64.27a3.06,3.06,0,0,1-2.6-1.56L191,47.84h-.09V67.39c0,1.9-1,3-2.79,3s-2.75-1.09-2.75-3V42c0-2.22,1.23-3.88,3.64-3.93a4,4,0,0,1,3.74,2.23l10.13,16.56,10.18-16.52a4,4,0,0,1,3.69-2.27A3.44,3.44,0,0,1,220.33,41.88Z"/><path class="cls-2" d="M256.73,40.27a21.83,21.83,0,0,1,3.08,3.55,17.21,17.21,0,0,1,2.17,9V67.35a2.82,2.82,0,1,1-5.63,0V60.81h-18v6.58c0,1.9-1,3-2.74,3s-2.79-1.09-2.79-3V52.81a20.37,20.37,0,0,1,.94-6.39,14.82,14.82,0,0,1,1.23-2.6,20.87,20.87,0,0,1,3-3.55c1.56-1.61,4.74-2.42,9.42-2.46S255.17,38.66,256.73,40.27Zm-.38,12.31c0-6.3-3.17-9.61-9-9.61s-9.05,3.31-9.05,9.61v3.07h18Z"/><path class="cls-2" d="M291,38.38c7,0,10.75,3.5,10.75,10.12S298.05,58.68,291,58.68h-11v8.67c0,1.89-1,3-2.79,3s-2.84-1.14-2.84-3V41.4a2.78,2.78,0,0,1,3-3Zm-.57,15.14c3.6,0,5.54-1.65,5.54-5,0-3.21-1.94-5-5.54-5H280.06v10Z"/><path class="cls-2" d="M318.82,50.26c1.85.75,3.79.94,6.87,1,10,.14,13.58,2.79,13.58,9.18a9.93,9.93,0,0,1-.95,4.36,11,11,0,0,1-3.59,3.88c-1.76,1.28-4.88,1.94-9.28,2a22.11,22.11,0,0,1-7.2-.9c-3.36-1.18-4.87-2.27-6.2-3.79a3.06,3.06,0,0,1-.71-2A2.48,2.48,0,0,1,314,61.29a2.61,2.61,0,0,1,1.8.66c2.42,2.41,5.78,3.6,10.08,3.6,4.79,0,7.58-1.85,7.63-4.93a2.44,2.44,0,0,0-1.38-2.6c-1.89-.9-3.88-1.14-7.1-1.18-9.75-.15-13.2-2.8-13.2-8.81,0-6.25,5.3-10.22,13.63-10.22,4.87,0,8.71,1.32,11.55,3.83a2.82,2.82,0,0,1,.95,2.23c-.15,1.61-.9,2.46-2.37,2.55a3.23,3.23,0,0,1-2.08-.66A12.86,12.86,0,0,0,325,42.92a11.94,11.94,0,0,0-3.07.38,9.54,9.54,0,0,0-2.89,1.32,3.74,3.74,0,0,0-1.52,3.22A2.32,2.32,0,0,0,318.82,50.26Z"/><path class="cls-2" d="M356.87,50.26c1.85.75,3.79.94,6.87,1,10,.14,13.58,2.79,13.58,9.18a10.07,10.07,0,0,1-.94,4.36,11.15,11.15,0,0,1-3.6,3.88c-1.75,1.28-4.88,1.94-9.28,2a22,22,0,0,1-7.19-.9c-3.36-1.18-4.88-2.27-6.21-3.79a3.06,3.06,0,0,1-.71-2,2.49,2.49,0,0,1,2.66-2.65,2.58,2.58,0,0,1,1.79.66c2.42,2.41,5.78,3.6,10.09,3.6,4.78,0,7.57-1.85,7.62-4.93a2.43,2.43,0,0,0-1.37-2.6c-1.9-.9-3.89-1.14-7.11-1.18-9.75-.15-13.2-2.8-13.2-8.81,0-6.25,5.3-10.22,13.63-10.22,4.88,0,8.71,1.32,11.55,3.83a2.82,2.82,0,0,1,.95,2.23c-.14,1.61-.9,2.46-2.37,2.55a3.23,3.23,0,0,1-2.08-.66,12.84,12.84,0,0,0-8.48-2.84,12,12,0,0,0-3.07.38,9.54,9.54,0,0,0-2.89,1.32,3.74,3.74,0,0,0-1.51,3.22A2.3,2.3,0,0,0,356.87,50.26Z"/><g class="cls-3"><path class="cls-4" d="M-71.28,90.25c-2.25-.08-15.93-6-20.28-14.21C-100.94,56.65-41,23-38.54,19.69l61.87,67L-64.3,95.37"/></g><path class="cls-5" d="M64.52,17.05h1.71c.66.11,1.3.27,2,.33,6.1.53,11.53,2.36,14.48,9.19a2.06,2.06,0,0,0,2.74,1.32,20.62,20.62,0,0,1,12.94.57c4.66,1.65,9.26,3.51,13.85,5.4,5.77,2.38,11.24,2.06,16.46-1.83a13.62,13.62,0,0,1,7.54-2.63c3.67-.21,9.26-1.36,10.62,2.76.92,2.79-2.1,5.29-3,7.91a37.22,37.22,0,0,0-1,3.94,10.32,10.32,0,0,0,1.81.32c1.71,0,3.43,0,5.13-.17,6.53-.59,12.87,6.33,11.77,9.52-.15.44-7.94-.86-11.13.92-2.12,1.18-4.14,2.6-6.26,3.82q-4.8,2.76-9.68,5.38a9.37,9.37,0,0,1-7.2.84c-2.75-.75-3.54.25-3,3.33.65,3.71,0,5.5-3.11,6.88-5.51,2.46-11,5-16.67,7-6.23,2.2-12.7,3-19.13,1.07a117.34,117.34,0,0,0-26.87-4.5,8.71,8.71,0,0,1-8.06-5.43,11.2,11.2,0,0,0-6.82-6.54c-3-1.12-6.11-2-9.14-3-5.87-2.08-8.32-6.13-7.5-12.58a3.49,3.49,0,0,0-1.26-3.46c-1.65-1.35-3.39-2.57-5-4-1.81-1.53-3.54-3.19-5.3-4.79V37A20.62,20.62,0,0,1,18,34.52c3.22-2.15,6.47-4.27,9.81-6.19a27.94,27.94,0,0,1,5.46-2.26c4.84-1.55,9.24-.22,13.49,2.59a31.58,31.58,0,0,0,6.95,3.58c3.8,1.29,6.31-.67,7-5.06a11.85,11.85,0,0,0,.12-3C60.48,20.71,61.72,18.38,64.52,17.05Z"/><g class="cls-6"><path class="cls-7" d="M44.26,13h-.64v-.72H43c-.16-.36.15-1.08,0-1.44h-.64c-.16-.36.16-1.08,0-1.44h-.64V8.64C41.07,8.1,40.91,7,39.8,7.2V6.48h-.64V5.76h-.63V5c-.64-.18-1.28.18-1.92,0-.31-.18-.31-.54-.63-.72a46.7,46.7,0,0,1-8.92-2.16l-.24-.05a11.73,11.73,0,0,1-1.43,2.7C23.12,8,19.67,9.9,15.1,10.8a45.46,45.46,0,0,0-10,2.81A10.78,10.78,0,0,0-1.2,20.33,11.21,11.21,0,0,1-1.53,22c-.88,1.82-2.92,2.5-5.25,2.82-2.11.28-4.24.47-6.33.81-2.47.41-4,2.16-3.5,4.54a14.92,14.92,0,0,0,1.77,4c.68,1.25,1.29,2.52,2,3.75a15.71,15.71,0,0,0,1.72,2.24,8.65,8.65,0,0,1,2,4.77,10.9,10.9,0,0,0,1,3.24c.72,1.4,2.26,2.19,4.28,2.3,1.4.08,2.81,0,4.22,0a37.68,37.68,0,0,1,6.72.64c1.54.26,3.12.39,4.7.51,3.16.25,6.4.14,9.39,1.11a56.81,56.81,0,0,1,5.66,2.1c2.95,1.34,4.67.71,5.73-1.55a14.31,14.31,0,0,0,1.07-3.82,31.38,31.38,0,0,1,1.55-5.27,11.54,11.54,0,0,0,.27-5.63,11.71,11.71,0,0,1,.57-5.78,11.92,11.92,0,0,1,3.71-5.53,3.35,3.35,0,0,0,1.15-4A8.89,8.89,0,0,1,42.65,15a7.24,7.24,0,0,1,1.59-1.49A1.3,1.3,0,0,1,44.26,13Z"/><path class="cls-8" d="M134.37-72.54,2.46-57.5a33.34,33.34,0,0,1,1.8,3.65,4.5,4.5,0,0,1-1.72,5.58A9.79,9.79,0,0,1-.14-46.84a15.37,15.37,0,0,0-5.55,3.28,18.57,18.57,0,0,1-7.1,3.92c-3,.88-4.68,2.45-5.29,4.61a17.38,17.38,0,0,1-2.2,4.69,10.63,10.63,0,0,1-5.08,3.85,21.91,21.91,0,0,0-5.77,3.18,10.7,10.7,0,0,0-3.24,5A8.14,8.14,0,0,1-37-14.52a17.16,17.16,0,0,0-4.22,5.28c-1.33,2.27-4,3.44-7.46,3.8a26.16,26.16,0,0,0-3.83.59,6.43,6.43,0,0,0-4.15,3.24A21.27,21.27,0,0,0-58.77,3.6,10.64,10.64,0,0,1-63,9.47a3.57,3.57,0,0,0-.85.84c-.59.93-.49,1.56.76,2.47,1.74,1.25,3.56,2.45,5.37,3.65A29.35,29.35,0,0,0-53.65,19a25.4,25.4,0,0,0,10.82,2.5c1.15,0,1.56-.25,1.53-1-.11-2-.3-4.08-.37-6.12a6.12,6.12,0,0,1,2.79-5.07c2-1.52,4-3,6.15-4.43a29.86,29.86,0,0,1,7.48-4A53.94,53.94,0,0,1-19-.62C-14.1-1.55-9.9-3.16-7.14-6.17A16,16,0,0,0-3.86-12.1a13.91,13.91,0,0,1,2-4.37A7.62,7.62,0,0,1,2.46-19a34.32,34.32,0,0,1,6.91-.91c1.73-.08,3.46-.2,5.19-.25a17.38,17.38,0,0,1,6.14,1c2.18.76,4.37,1.49,6.52,2.29,1.73.65,2.6,1.47,1.82,3.25a27.31,27.31,0,0,1-1.54,3,11.7,11.7,0,0,0-1.66,5.93,9.83,9.83,0,0,1-.71,3.57l.23,0A51.08,51.08,0,0,0,34.28.82c.32.17.32.49.64.65.64.16,1.27-.16,1.91,0v.65h.64v.65h.63v.65c1.12-.16,1.28.81,1.92,1.3v.64h.63c.16.33-.16,1,0,1.3h.64c.16.33-.16,1,0,1.3h.64v.65h.63a1.19,1.19,0,0,0,0,.49,10.3,10.3,0,0,1,5.32-1.39c2.14,0,4.28,0,6.43,0a14.24,14.24,0,0,0,3.93-.45A6.08,6.08,0,0,1,63,8c.37-1.24,1.51.86,0,0-.45,1.48-2.49.35-4.28,1.36C58,9.76,56.9,12,56,12.3c-2.14.87-.94,5.85-1.75,7.52-1.07,2.19-1.22,4.38.5,6.44,1.32,1.58,3.48,2.44,6.12,2.67,1.88.17,3.79.21,5.66.42a24.61,24.61,0,0,1,5.24.88c2.7.95,3.24,2.07,1.55,4.17-.86,1.07-2,2-2.94,3.08a11.53,11.53,0,0,0-2.85,4.88,4.77,4.77,0,0,0,1.19,4A13.31,13.31,0,0,0,75.52,51a23.08,23.08,0,0,0,4.78.85c2.22.2,4.47.2,6.71.29,1,0,2,.1,3.07.13A37.46,37.46,0,0,0,98,51.61c3.13-.56,6.27-1.08,9.4-1.63a9.55,9.55,0,0,0,5-2.29,59.79,59.79,0,0,1,6.38-5.19,11.19,11.19,0,0,0,3.25-4c.78-1.42,4.13-4.28,4.51-4.49l5.82-4.05L169.44,4.06Z"/><path class="cls-9" d="M64.72,12.23c1.51,1,.38-1.37,0,0Z"/><path class="cls-10" d="M96.67,86.94a7.26,7.26,0,0,1,1.64-4.83c1.52-1.77,3.79-2.57,6.33-2.9,1.93-.25,3.9-.32,5.85-.48,1.09-.09,2.18-.2,3.26-.31.63-.06.89-.4.76-.84-.49-1.54,0-3,.31-4.53a23.63,23.63,0,0,0,.84-6.07c0-.54.4-5.54-3.83-7.19s-8.58.41-12.67,1.66A17.2,17.2,0,0,1,92,62c-2-.25-4-.31-6-.49-3.33-.28-6.69-.36-10-1-2.82-.52-4.8-.21-6.6-1.92C66.6,56,64.71,55,63.63,51.71c-.62-1.89-.19-7.67-.07-8.66.18-1.4-.68-2.32-2.36-2.83-2.3-.71-3-1-5.31-1.73-1.33-.42-2.63-.91-3.94-1.37a11.54,11.54,0,0,0-5.37-.58,5.17,5.17,0,0,0-4.4,3.27c-1,2.72-2,5.45-2.86,8.22a42.66,42.66,0,0,0-.81,5.06,20.06,20.06,0,0,1-1.82,6.52c-1.1,2-3.24,3.15-6.14,3.31a13,13,0,0,1-6.91-1.77A37.54,37.54,0,0,0,14,57.33a32.31,32.31,0,0,0-4.6-.69c-2.2-.14-4.42-.22-6.62-.16-6.75.18-12.25,2.28-16,6.9a13.47,13.47,0,0,0-1.71,2.54c-.88,1.82,0,2.85,1.68,3.55,2.26,1,4.41,2.07,6.53,3.21A30.35,30.35,0,0,0-1.12,75,7.42,7.42,0,0,1,2.7,77.28C3.94,78.89,5.87,79.49,8,79.8a60.92,60.92,0,0,1,10.47,2.36,7.9,7.9,0,0,0,5.85-.2q2.84-1.27,5.76-2.45a14.91,14.91,0,0,1,5.08-1.23,11.08,11.08,0,0,1,6,1.83c1.28.71,2.51,1.49,3.84,2.14,2.32,1.14,5.2,1.19,7.11-.6,1-.9,2,5.46,3,4.57a8.83,8.83,0,0,1,5.67-2.11,10.39,10.39,0,0,1,5,1.13,15.73,15.73,0,0,1,6.43,5.67c.68,1.06,1.41,2.1,2.11,3.15"/><path class="cls-11" d="M118-60.33a9.19,9.19,0,0,1-4.14,7.57,7.78,7.78,0,0,1-5.47,1.2c-2.46-.24-4.64-1.1-7-1.55-.67-.13-1.35-.23-2-.36a2.27,2.27,0,0,0-2.58,1,19.36,19.36,0,0,0-1.35,2.38c-.74,1.55-1.5,3.1-2.1,4.69-.81,2.15-1.5,4.33-2.22,6.5a4.48,4.48,0,0,1-3.75,3.1,37,37,0,0,0-7.58,2.1,37.62,37.62,0,0,1-6.62,2.24c-2.82.66-5.6,1.43-8.46,2a54,54,0,0,1-5.46.54c-2,.17-3.9.35-5.85.5a2.82,2.82,0,0,0-2.78,2c-.34,1-.58,2.08-1,3.1a8.64,8.64,0,0,1-4.42,5.1,39.9,39.9,0,0,1-4.29,1.41A13.1,13.1,0,0,0,39-16c-.92.5-1,1.17-.1,1.72a7.81,7.81,0,0,0,3.74,1.08c1.89.14,3.79.14,5.66.32s3.65.5,5.47.78,3.41.49,5.09.8A8.56,8.56,0,0,1,64-8.41c1.33,1.54,2.72,3.06,4,4.62A12.62,12.62,0,0,0,72.39-.54,24.56,24.56,0,0,1,78.46,3.2a8.58,8.58,0,0,0,4.3,2.17c4,.72,6.12,0,7.17-3a15.29,15.29,0,0,1,3.74-6,14.59,14.59,0,0,0,4-7.28,16.78,16.78,0,0,1,2.77-6.86,13.3,13.3,0,0,1,1.83-2c2-1.71,4-3.44,6.91-4.32a20.47,20.47,0,0,1,4.5-.86c3.3-.22,5.44-1.4,6.43-3.78.64-1.53,1.36-3,2-4.56a11.07,11.07,0,0,1,3.38-3.88A29.92,29.92,0,0,1,128.24-39Z"/><path class="cls-12" d="M87.39,85.29a22.22,22.22,0,0,1,3.33-5,15.56,15.56,0,0,1,7.66-4.18c1.7-.45,3.46-.77,5.14-1.25,2.54-.73,4.1-2.77,4.12-4.25,0-1-.89-1.72-2.31-1.94a10.82,10.82,0,0,0-5,.71,12.17,12.17,0,0,1-5.06.83c-1.33-.14-2.64-.41-4-.63a37.34,37.34,0,0,0-6.53-.78c-1.2,0-2.4-.14-3.6-.11-1.89,0-3.78.19-5.67.24A8.72,8.72,0,0,1,69,66.82c-.72-.69-1.4-1.4-2.16-2.06a12.61,12.61,0,0,1-3.06-4.14,22.13,22.13,0,0,0-3.19-4.26,4.51,4.51,0,0,1-1-2.71,15.35,15.35,0,0,0-.36-3.1c-.38-1.52-1.84-2.34-3.75-2.64a5.05,5.05,0,0,0-5.24,1.92,24.54,24.54,0,0,0-2.55,4.85c-3.43,7.59,3.66,11.06,6.07,12.81a5.93,5.93,0,0,1,2.57,4.14c.18,1.29,1,1.75,2.75,1.49,3-.47,3.68.46,6.79.46a12.3,12.3,0,0,1,5.92,1.51,13.89,13.89,0,0,1,5.07,4.26A20.64,20.64,0,0,0,83,85.23"/><path class="cls-13" d="M128.05-33.83A10.2,10.2,0,0,0,123.72-28c-.44,1.33-1,2.65-1.53,4s-1.58,2.26-4,2.17c-1.31-.06-2.63-.11-3.94-.15a13.7,13.7,0,0,0-7,1.53c-2.64,1.44-5,3.07-6,5.55a9.34,9.34,0,0,0-.76,3.54c0,.81,0,1.63,0,2.45a10.05,10.05,0,0,1-3,7.38,10.63,10.63,0,0,0-2.27,3.32c-1,2.66-.48,5,3.22,6.47A31.67,31.67,0,0,0,105,10.1a9.52,9.52,0,0,0,5.47-.84,21.21,21.21,0,0,0,9.61-8,13.52,13.52,0,0,1,4.79-4.71,11.76,11.76,0,0,0,1.44-1.08,1.29,1.29,0,0,0,.2-2.16,17.68,17.68,0,0,1-2.26-2.54,8.86,8.86,0,0,1-.89-2.81,10.25,10.25,0,0,1-.19-2.59,12.43,12.43,0,0,1,.48-2.82c.48-1.58,1.48-2.2,4.58-2.38"/><path class="cls-14" d="M128.8-8.22a21.21,21.21,0,0,0-5.47,3.39L117.67-.57c-1.6,1.21-3.16,2.44-4.81,3.6-1.44,1-2.81,2.15-4.88,2.47a8.88,8.88,0,0,1-3.17-.21c-1.23-.24-2.48-.44-3.74-.58a2.92,2.92,0,0,0-3.32,1.88,6.8,6.8,0,0,0-.57,3c.24,3-1,5.57-3.1,8a6.47,6.47,0,0,0-1.53,3.74c-.11,1.46,1,2.63,3,3.1,1.35.32,2.73.58,4.12.79A39.81,39.81,0,0,1,108.38,28c2.71,1.06,4.45.68,6.18-.72a12.68,12.68,0,0,0,2.59-3,2.63,2.63,0,0,0,.34-2.66c-.22-.46-.17-1-.41-1.44-1.14-2.07-.34-3.81,1.45-5.42a8.08,8.08,0,0,1,4.61-2.09,15.47,15.47,0,0,1,5,.35,6.48,6.48,0,0,0,.77.08"/><path class="cls-8" d="M144.08,63.57c-1.37,0-9.73-3.65-12.39-8.69C126,43,162.59,22.46,164.08,20.46l37.8,40.93-53.54,5.3"/><path class="cls-13" d="M40.91,83.9a2.17,2.17,0,0,1-.56-.18,8.1,8.1,0,0,0-4.91-1.58,9.07,9.07,0,0,0-3.73,1,11.29,11.29,0,0,0-1.16.72"/><path class="cls-13" d="M14.62,83.87a7.21,7.21,0,0,0-5.37-.64,12.19,12.19,0,0,0-1.54.64"/><path class="cls-13" d="M128.2,26.9v1.73"/><path class="cls-15" d="M91.09,26.11c-.38.06-.31.08-.69.12-1.47.15-4.3,2.75-5.12,3.57a43.49,43.49,0,0,1-5.19,4.59,10.81,10.81,0,0,0-2.94,3C75.63,39.84,76,42,78.3,44a10.35,10.35,0,0,0,5.91,2.35,48.24,48.24,0,0,0,6.58.21,48.91,48.91,0,0,0,9.83-1,25.57,25.57,0,0,0,5.2-1.52,10.63,10.63,0,0,0,4.12-3.56c.88-1.22,1.73-2.46,2.51-3.73a15,15,0,0,0,1.13-3.3,2.31,2.31,0,0,0-2-2.29c-2.95-.3-4.67-.12-6.71-1.61-1.17-.85-3.54-.39-5-.93s-2.09-2.12-3.58-2.17c-1.94-.05-3.21-.34-5.16-.34"/><path class="cls-16" d="M15.2,26.25c-1.28.14-2.56.35-3.84.42A49.6,49.6,0,0,0-.92,28.42a11,11,0,0,0-3.76,1.65A3.74,3.74,0,0,0-6.21,33,7.62,7.62,0,0,0-4.68,37.8c1.15,1.65,2.3,3.3,3.35,5,.87,1.38,2.32,2,4.24,1.93,1,0,2-.08,3-.13a22.93,22.93,0,0,1,7.68,1.29,13.23,13.23,0,0,0,6.7.35,7,7,0,0,0,2-.93c1.6-1,3.08-2.13,4.73-3.08a7.44,7.44,0,0,0,3.61-4.86c.46-1.69.84-3.41,1.14-5.12a5.79,5.79,0,0,0,0-2.52c-.45-1.68-1.51-2.47-4.09-2.88a74.07,74.07,0,0,0-12.38-.59"/><path class="cls-13" d="M124.88,9.57a10.15,10.15,0,0,0-6.61,3.11,2.8,2.8,0,0,0-.48.86c-.7,1.55.33,2.36,2.2,2.44a12.59,12.59,0,0,0,2.68-.08c2.21-.38,3.49-1.52,3.92-3.16a8.25,8.25,0,0,0,.2-2.16c0-.58-.64-.9-1.81-1"/><path class="cls-14" d="M71.51-2.21c-1.34.6-1.62,1.3-.85,2.45.51.77,1.12,1.5,1.72,2.24a4.38,4.38,0,0,1,1,2.53c.13,1.65-.51,3.22-.77,4.84A41.56,41.56,0,0,0,72,14.68c-.11,2.59-1.73,4.07-4.53,4.92-.7.21-1.34.52-2,.79-1.89.74-1.9,2.84-.11,3.77a8.67,8.67,0,0,0,3.47.91c1.56.1,3.13.07,4.7.17a52.08,52.08,0,0,1,7.39,1c3.49.71,5,.05,6.31-2.52.71-1.39,1.19-2.84,1.86-4.25a37.79,37.79,0,0,1,2-3.82,10.4,10.4,0,0,0,1.61-4.7,22.6,22.6,0,0,0,.17-3.18,4.63,4.63,0,0,0-2.29-4.1,12.74,12.74,0,0,0-4.5-1.39c-2.21-.32-4.43-.63-6.62-1a7.69,7.69,0,0,1-3.27-1.5c-.61-.45-1.26-.88-1.92-1.3a4.25,4.25,0,0,0-2.68-.65"/><path class="cls-17" d="M41.11-5.38c-.68.14-1.37.24-2,.44A6.74,6.74,0,0,0,34.72-.89a10.23,10.23,0,0,0-.95,3.74A3.8,3.8,0,0,0,36.51,7a9.48,9.48,0,0,0,4.11.21A12.86,12.86,0,0,0,46.27,5.5a10.88,10.88,0,0,0,2.12-1.93c1.2-1.33,2.28-2.71,3.48-4,.86-1,1.11-1.86.35-2.45A6.34,6.34,0,0,0,50.12-4,32.66,32.66,0,0,0,41.2-5.38Z"/><path class="cls-17" d="M13.28-7c-2.55.51-3.56,2.08-4.5,3.69A7.32,7.32,0,0,0,8.1-1.7C7.72-.41,8.24,1,10.4,1.47a9.66,9.66,0,0,0,4.41,0C16.6,1,17.65,0,17.76-1.34a5.26,5.26,0,0,0-2.27-5A3.38,3.38,0,0,0,13.37-7"/><path class="cls-18" d="M39-9.28a18.51,18.51,0,0,0-2.4.45A7.19,7.19,0,0,0,32.38-5a26.69,26.69,0,0,0-2.3,6.79,16.83,16.83,0,0,1-4,7.8,19.09,19.09,0,0,0-2,2.24c-1.57,2.16-1.51,3,.69,4.81a12.54,12.54,0,0,0,5.63,2.47c1.69.32,3.79-.09,4.78-1.37a35.83,35.83,0,0,0,2.4-3.47c1.3-2.17,3.62-3.46,6.45-4.32,1.77-.53,3.57-1,5.37-1.51A7,7,0,0,0,52.9,6.24a15.48,15.48,0,0,1,6.63-4.19,7,7,0,0,0,1.24-.58c1.73-1,2.37-2.31,1.73-3.89a8,8,0,0,0-4.31-4.69A11.36,11.36,0,0,0,54.45-8c-2.24-.18-4.48-.39-6.72-.58l-6.91-.58-1.73-.14Z"/><path class="cls-13" d="M8.29,59.61a21.25,21.25,0,0,0-2.3.44c-1.41.42-2.67,1-3.08,2.23-.36,1.07.26,2,1,2.8a44,44,0,0,0,3.54,3.4,23.12,23.12,0,0,0,2.78,2.16c2.3,1.51,5.16,2.06,8,2.54a15.72,15.72,0,0,0,5,.2,18.83,18.83,0,0,0,5.87-1.85,11.47,11.47,0,0,0,3.46-2.24c1-1.14.39-2.38-1-2.74-1.68-.45-3.4-.79-5.08-1.25-2-.56-4.08-1.11-6-1.81-2.74-1-5.39-2.1-8.08-3.16a11.25,11.25,0,0,0-4-.72"/><path class="cls-19" d="M9.63-14.62a9.62,9.62,0,0,0-5.28,2.24A10.89,10.89,0,0,0,1.76-8.7c-.93,2-1.78,4-2.8,6A24.19,24.19,0,0,1-5.16,2.85,5.12,5.12,0,0,1-8.89,4.17,44.7,44.7,0,0,0-19.74,5.3,18.62,18.62,0,0,0-25.58,8a16.46,16.46,0,0,0-4.82,4.68c-2.14,3.43-.72,7.63,4.12,9.34a7.4,7.4,0,0,0,3.28.31c2.57-.26,5.12-.67,7.68-1a11.48,11.48,0,0,0,6.69-2.91A34.32,34.32,0,0,0-4.53,14,11.3,11.3,0,0,0-3,10.36C-2.34,8.23-1.36,8.29.71,8.23c2.91-.08,5.77-.38,8.64-.74,1.35-.18,2.74-.21,4.12-.31C18.23,6.85,22.55,4.89,23.4,1a9.38,9.38,0,0,0-.17-3.53C22.91-4.35,22.45-6.2,22-8a6.21,6.21,0,0,0-2.18-3.55,13,13,0,0,0-7-2.94c-1-.1-2-.06-3.06-.08Z"/><path class="cls-13" d="M111-18.67a12.79,12.79,0,0,0-4,1.21c-2.45,1.34-3.76,3.14-3.58,5.36a33.81,33.81,0,0,0,1.18,4.63,26.31,26.31,0,0,1,.66,3.82,5.77,5.77,0,0,1-.73,3A8.39,8.39,0,0,0,104,1.05c-.37,1.41.73,2.54,2.68,2.65a10,10,0,0,0,2.68-.22,2.55,2.55,0,0,0,2.12-2.29A13.27,13.27,0,0,1,112.79-4c.9-1.51,1.78-3,2.69-4.55,1.12-1.84,2.19-3.7,2.1-5.77s-1.8-3.77-4.79-4.19c-.57-.08-1.15-.1-1.72-.15"/><path class="cls-20" d="M21,30.72c-.73.17-1.5.29-2.2.52C16,32.13,16,35,18.07,36.44a6.69,6.69,0,0,0,6.54.28c2.25-1.4,2.53-4.38-.12-5.48a8,8,0,0,0-3.44-.52"/><path class="cls-21" d="M103.48,26.39a4,4,0,0,0-2.21,2.17c-.31.77,1-.14,1.93.31s.44,1.62,1.34,1.28a1.64,1.64,0,0,0,.85-1.81,4.85,4.85,0,0,0-.38-1.15,1.25,1.25,0,0,0-1.43-.8"/></g><path class="cls-22" d="M64.52,17.05a5.45,5.45,0,0,1,1.71,0c.66.05,1.3.27,2,.33,6.1.53,11.53,2.36,14.48,9.19a2.06,2.06,0,0,0,2.74,1.32,20.62,20.62,0,0,1,12.94.57c4.66,1.65,9.26,3.51,13.85,5.4,5.77,2.38,11.24,2.06,16.46-1.83a13.62,13.62,0,0,1,7.54-2.63c3.67-.21,9.26-1.36,10.62,2.76.92,2.79-2.1,5.29-3,7.91-.44,1.22-1.66,2.73-1,3.94.48.85,1.34.33,1.81.32,1.71,0,3.43,0,5.13-.17,6.53-.59,12.87,6.33,11.77,9.52-.15.44-7.94-.86-11.13.92-2.12,1.18-4.14,2.6-6.26,3.82q-4.8,2.76-9.68,5.38a9.37,9.37,0,0,1-7.2.84c-2.75-.75-3.54.25-3,3.33.65,3.71,0,5.5-3.11,6.88-5.51,2.46-11,5-16.67,7-6.23,2.2-12.7,3-19.13,1.07a117.34,117.34,0,0,0-26.87-4.5,8.71,8.71,0,0,1-8.06-5.43,11.2,11.2,0,0,0-6.82-6.54c-3-1.12-6.11-2-9.14-3-5.87-2.08-8.32-6.13-7.5-12.58a3.49,3.49,0,0,0-1.26-3.46c-1.65-1.35-3.39-2.57-5-4-1.81-1.53-4.32-2.48-5.3-4.79a2.21,2.21,0,0,1,0-1.6A6.09,6.09,0,0,1,18,34.52c3.22-2.15,6.47-4.27,9.81-6.19a27.94,27.94,0,0,1,5.46-2.26c4.84-1.55,9.24-.22,13.49,2.59a31.58,31.58,0,0,0,6.95,3.58c3.8,1.29,6.31-.67,7-5.06a11.85,11.85,0,0,0,.12-3C60.48,20.71,61.55,17.73,64.52,17.05Z"/><g class="cls-23"><path class="cls-8" d="M556.9-71.88,425-56.84a33.38,33.38,0,0,1,1.79,3.66,4.5,4.5,0,0,1-1.72,5.58,9.63,9.63,0,0,1-2.68,1.42,15.51,15.51,0,0,0-5.55,3.28A18.4,18.4,0,0,1,409.75-39c-3,.88-4.68,2.45-5.3,4.61a16.85,16.85,0,0,1-2.2,4.7,10.57,10.57,0,0,1-5.08,3.84,21.71,21.71,0,0,0-5.76,3.19,10.63,10.63,0,0,0-3.25,5,8.07,8.07,0,0,1-2.63,3.82,17.62,17.62,0,0,0-4.22,5.29c-1.33,2.26-3.94,3.44-7.46,3.79a25.07,25.07,0,0,0-3.83.6,6.4,6.4,0,0,0-4.14,3.23,20.88,20.88,0,0,0-2.11,5.21,10.67,10.67,0,0,1-4.21,5.87,3.48,3.48,0,0,0-.86.85c-.58.93-.48,1.56.77,2.46,1.73,1.25,3.55,2.45,5.36,3.66a29.4,29.4,0,0,0,4.06,2.57,25.18,25.18,0,0,0,10.81,2.51c1.16,0,1.57-.26,1.53-1-.1-2-.3-4.08-.36-6.13a6.12,6.12,0,0,1,2.78-5.07c2-1.51,4-3,6.15-4.42a30.57,30.57,0,0,1,7.48-4,56.07,56.07,0,0,1,6.23-1.5c4.92-.93,9.12-2.54,11.88-5.56a16.06,16.06,0,0,0,3.28-5.92,13.87,13.87,0,0,1,2-4.38A7.54,7.54,0,0,1,425-18.34a34.32,34.32,0,0,1,6.91-.91c1.73-.08,3.45-.21,5.18-.25a17.12,17.12,0,0,1,6.14,1c2.18.75,4.38,1.49,6.52,2.29,1.73.64,2.6,1.47,1.82,3.24A27.44,27.44,0,0,1,450-10a11.56,11.56,0,0,0-1.65,5.93,10.1,10.1,0,0,1-.72,3.57l.24,0a50.69,50.69,0,0,0,8.92,2c.31.16.31.48.63.65.64.16,1.28-.17,1.91,0v.65H460v.64h.64v.65c1.11-.16,1.27.81,1.91,1.3V6h.64c.16.32-.16,1,0,1.3h.63c.16.32-.16,1,0,1.29h.64v.65h.64a1.25,1.25,0,0,0,0,.5,10.23,10.23,0,0,1,5.32-1.39c2.14,0,4.29,0,6.43,0a14.76,14.76,0,0,0,3.94-.46,6.1,6.1,0,0,1,4.8.7c.38-1.23,1.51.87,0,0-.45,1.49-2.49.36-4.28,1.37-.77.44-1.84,2.62-2.71,3-2.13.87-.93,5.84-1.75,7.52-1.07,2.19-1.22,4.38.5,6.44,1.32,1.57,3.48,2.43,6.12,2.67,1.88.17,3.79.2,5.66.41a24.61,24.61,0,0,1,5.24.88c2.71,1,3.25,2.08,1.55,4.18-.86,1.07-2,2-2.93,3.07A11.53,11.53,0,0,0,490.1,43a4.79,4.79,0,0,0,1.2,4,13.32,13.32,0,0,0,6.75,4.59,23.2,23.2,0,0,0,4.78.85c2.22.19,4.48.2,6.71.29l3.08.13a38.26,38.26,0,0,0,7.87-.65c3.12-.56,6.27-1.08,9.4-1.64a9.55,9.55,0,0,0,5-2.29,60.91,60.91,0,0,1,6.37-5.19,11.09,11.09,0,0,0,3.26-4,23.27,23.27,0,0,1,4.51-4.5l5.81-4L592,4.72Z"/><path class="cls-13" d="M416.52,84.6a34.14,34.14,0,0,0-.32-4.4c-.37-1.85-1.94-3.18-3.9-4.26a29.24,29.24,0,0,0-8.44-2.82,22.22,22.22,0,0,1-5.47-1.52,13.35,13.35,0,0,1-2.19-1.38.92.92,0,0,1-.22-1.36c.46-.62.85-1.27,1.36-1.87a20.09,20.09,0,0,0,3.26-4.48c.84-1.85.34-3.49-1.26-5-1-.93-2.09-1.81-3.06-2.75a10.51,10.51,0,0,1-2.59-5.27,5.07,5.07,0,0,0-3.47-4,21.7,21.7,0,0,0-5.08-.89,27,27,0,0,0-5.09.15c-3.13.31-4.42,1.73-5,4a22.4,22.4,0,0,1-1.89,5.42,10.44,10.44,0,0,1-5.32,4.67,36.41,36.41,0,0,1-8.24,2.25,3.6,3.6,0,0,1-.57,0"/><path class="cls-13" d="M359,72.26c1.57-.2,3.13-.42,4.7-.57,1-.1,2.05-.08,3.07-.16,2.08-.18,4.26-.08,6.13-1a17.27,17.27,0,0,0,2.69-1.65,6.65,6.65,0,0,1,2.61-1.64,7.92,7.92,0,0,1,2-.22A15.89,15.89,0,0,0,386.59,66c2-.71,4-1.28,5.93-2.05s3.15-2,2.86-3.73a4,4,0,0,0-.87-2,22.65,22.65,0,0,1-3.92-6.65,6.72,6.72,0,0,0-1.25-2c-2.13-2.35-6.51-2.82-9.44-1a6.32,6.32,0,0,0-2.11,2.5c-1.23,2.35-2.26,4.76-3.41,7.13-.38.79-.91,1.54-1.33,2.32-.82,1.53-2.53,2.11-4.51,2.38q-3.45.45-6.91.86c-.86.1-1.73.1-2.59.15"/><path class="cls-13" d="M377.37,84.6c.13-.52.23-1.06.39-1.58a5.25,5.25,0,0,1,1.9-2.9,19.62,19.62,0,0,0,2.2-1.81,1.15,1.15,0,0,0,.32-1.58,2.75,2.75,0,0,0-2.22-.64c-1.25.19-2.5.41-3.74.65a12.64,12.64,0,0,1-4.71-.22c-1.91-.34-3.82-.71-5.76-.91a18,18,0,0,0-3.35.19c-1.13.1-2.24.24-3.36.36"/><path class="cls-13" d="M412.11,84.6a15.54,15.54,0,0,0-.32-2.73c-.54-1.85-2.2-3.05-4.38-3.92a20.94,20.94,0,0,0-8.07-1.5,34,34,0,0,0-3.64.16,6.43,6.43,0,0,0-4.4,2.3A29.27,29.27,0,0,1,386,83.6a13.55,13.55,0,0,0-1.06.93"/><path class="cls-13" d="M359,58.54A31.66,31.66,0,0,0,366.91,56c2.33-1.18,3.77-2.75,4.17-4.9a5.75,5.75,0,0,0-.17-2.89c-.51-1.63-2-2.72-4.11-3.08-2.54-.44-5.17-.61-7.76-.9"/><path class="cls-13" d="M359,53.77a10.18,10.18,0,0,0,5.38-1.07,2,2,0,0,0,1.25-2,1.59,1.59,0,0,0-1.45-1.22,6.23,6.23,0,0,0-5.09,1.65"/><path class="cls-13" d="M371.42,84.6a12,12,0,0,0-2-1.92A16.58,16.58,0,0,0,362.11,80c-1-.08-2.05,0-3.07-.08"/><path class="cls-13" d="M359.13,4.17V6.91"/><path class="cls-13" d="M405.29,7.85a13.76,13.76,0,0,0-6,2.38A7.47,7.47,0,0,0,396,14.71c-.23,1.15,1,2.74,2.6,3.24a16.63,16.63,0,0,0,8.43.48c3.29-.67,5.35-2.41,6.05-4.95.81-3-2.91-5.88-6.33-5.64-.44,0-.89,0-1.34,0"/><path class="cls-13" d="M383.8,51.61a4.71,4.71,0,0,0-3.43,2.24c-.92,1.45-1.64,2.95-1.09,4.62S381.64,61,383.6,61c1.75,0,3.31-.26,4.2-1.46a2.75,2.75,0,0,0,.34-2.52,10,10,0,0,0-1.84-4.26,3.33,3.33,0,0,0-2.41-1.15"/><path class="cls-17" d="M408.17-12.22a13.89,13.89,0,0,0-6.11,2.76,23,23,0,0,0-6,5.18,17.11,17.11,0,0,0-1.52,2.6c-.37.77-.06,1.16,1,1.28a23.49,23.49,0,0,0,3.84.14,18.83,18.83,0,0,0,5.47-1c3.45-1.35,6.4-3.1,7.65-6a3.21,3.21,0,0,0-.64-3.68,4.4,4.4,0,0,0-3.65-1.29Z"/><path class="cls-19" d="M432.16-14a9.59,9.59,0,0,0-5.27,2.24A10.8,10.8,0,0,0,424.3-8c-.94,2-1.79,4-2.81,6a23.49,23.49,0,0,1-4.12,5.56,5.08,5.08,0,0,1-3.73,1.32A45.76,45.76,0,0,0,402.79,6,18.92,18.92,0,0,0,397,8.65a16.63,16.63,0,0,0-4.83,4.68c-2.14,3.43-.72,7.64,4.13,9.34a7.51,7.51,0,0,0,3.27.32c2.57-.26,5.12-.67,7.68-1a11.48,11.48,0,0,0,6.69-2.91,34.39,34.39,0,0,0,4.1-4.49A11.11,11.11,0,0,0,419.56,11c.63-2.12,1.61-2.07,3.68-2.12,2.92-.09,5.78-.38,8.64-.75,1.36-.17,2.75-.21,4.12-.3,4.76-.33,9.08-2.29,9.93-6.15a9.12,9.12,0,0,0-.16-3.52c-.33-1.87-.79-3.72-1.23-5.57a6.17,6.17,0,0,0-2.19-3.54,12.91,12.91,0,0,0-7-2.94c-1-.11-2.05-.06-3.07-.09Z"/><path class="cls-19" d="M410.28-17.57c-1,.1-2,.21-3.07.29a10.82,10.82,0,0,0-7,2.88A19.21,19.21,0,0,1,398-12.52a67.93,67.93,0,0,0-8.65,7.43A32.87,32.87,0,0,1,381.2.63a27.74,27.74,0,0,1-5.46,1.8,6.86,6.86,0,0,0-5.28,5c-.76,2.81.78,5.07,3.08,7.14a1.32,1.32,0,0,0,1.81.07c1.64-1,3.18-2.11,4.92-3,2.67-1.37,5.5-2.55,8.22-3.86A48,48,0,0,0,393,5.38a28.6,28.6,0,0,1,9.71-3.46c5.54-1.09,9.92-3.38,12.64-7.22a8.21,8.21,0,0,0,1.4-6.57,9,9,0,0,0-1.28-3.53,4.5,4.5,0,0,0-4-2,7.56,7.56,0,0,1-1.05-.14Z"/><path class="cls-13" d="M363.45,28.64a4.83,4.83,0,0,0-2.51,1c-1,1-.36,3.35,1.73,3.87a12.45,12.45,0,0,0,6.81-.34c1.43-.44,1.58-1.47.49-2.36a10.61,10.61,0,0,0-5.08-2c-.44-.07-.89-.1-1.34-.15"/><path class="cls-13" d="M373.62,17.24c-1.07.58-1.33,1.15-.75,1.79a1.14,1.14,0,0,0,.75.34.88.88,0,0,0,.56-.48,1.26,1.26,0,0,0-.46-1.65"/></g></svg>